<svg width="45" height="45" viewBox="0 0 45 45" fill="none" xmlns="http://www.w3.org/2000/svg">
<path d="M27.0669 7.91463C31.8991 12.4624 30.3753 19.4747 29.0102 22.5573C29.4558 20.5952 29.2221 15.7236 24.7227 11.9341C19.0985 7.19731 12.9093 6.52654 8.76545 7.05289C5.72307 7.43934 3.23993 9.12039 1.16797 12.7378C1.16797 9.80941 1.16797 8.94827 3.93059 6.19212C8.50153 1.63189 9.57714 1.63186 12.5635 1.63192C15.5499 1.63197 22.2346 3.36681 27.0669 7.91463Z" fill="#1F2937"/>
<path d="M37.4807 27.0386C33.0855 32.0082 26.01 30.7221 22.8764 29.4634C24.8569 29.8425 29.7295 29.4474 33.376 24.8349C37.9342 19.0694 38.3827 12.7236 37.7723 8.94774C37.2839 5.92702 35.4801 3.32072 31.7873 1.37511C34.7209 1.27769 35.5836 1.24904 38.4366 3.91196C43.1571 8.31796 43.1929 9.39046 43.2922 12.3682C43.3915 15.346 41.8759 22.069 37.4807 27.0386Z" fill="#1F2937"/>
<path d="M17.463 36.4443C12.8528 31.6726 14.7087 24.7405 16.219 21.726C15.6805 23.6648 15.682 28.5421 19.9959 32.5404C25.3883 37.5384 32.2576 38.419 36.0793 38.1167C39.1367 37.8748 41.3205 36.369 43.5623 32.8539C43.4229 35.7789 43.3819 36.6391 40.4912 39.2612C35.7083 43.5997 34.6339 43.5488 31.6509 43.4072C28.6679 43.2656 22.0733 41.216 17.463 36.4443Z" fill="#1F2937"/>
<path d="M8.61486 17.6681C13.3676 13.0377 20.3279 14.8441 23.3593 16.3313C21.4125 15.8067 16.5239 15.8399 12.5443 20.1696C7.56979 25.5817 6.52084 32.5467 7.03882 36.1641C7.47255 39.1931 8.8456 41.4687 12.3835 43.6824C9.45072 43.5623 8.58828 43.527 5.94125 40.6602C1.56154 35.9168 1.60561 34.8446 1.7281 31.8678C1.85059 28.8909 3.8621 22.2985 8.61486 17.6681Z" fill="#1F2937"/>
<path d="M44 26.7152V16.469C43.1047 19.3922 41.5708 24.7953 38.0176 28.2839C34.8157 31.4276 32.1574 32.4252 26.2971 31.6943C21.629 31.1122 18.6055 28.2433 17.7509 26.8222C18.0764 28.3651 19.259 31.6513 23.367 33.8868C28.7389 36.8101 34.8433 38.5153 39.4827 35.8356C43.0396 33.7812 44 29.9881 44 26.7152Z" fill="#1F2937"/>
<path d="M18.4962 44H28.8645C25.6861 43.571 19.8157 40.815 17.0219 38.0317C13.843 34.8647 12.8709 32.1851 13.6034 26.3386C14.1869 21.6814 17.0626 18.665 18.487 17.8124C16.9405 18.1372 13.6465 19.317 11.4058 23.4153C8.47569 28.7746 6.76644 34.8648 9.4524 39.4933C11.5116 43.0418 15.043 44 18.4962 44Z" fill="#1F2937"/>
<path d="M1 18.2747L1 28.3656C2.00448 25.4779 4.69512 19.1184 7.42187 16.7827C10.8303 13.8629 13.4336 12.8633 19.2623 13.8127C23.9053 14.5689 26.8189 17.5489 27.6195 19.0008C27.3521 17.4469 26.2938 14.1187 22.2727 11.7313C17.0143 8.60928 10.9782 6.67705 6.24144 9.18142C2.60993 11.1014 1 15.0019 1 18.2747Z" fill="#1F2937"/>
<path d="M25.7478 1L16.0416 1C20.5062 2.05757 24.7099 3.80147 27.7621 7.09015C30.8143 10.3788 32.035 13.5208 31.2379 19.359C30.603 24.0095 27.6378 27.2312 26.204 28.0681C27.754 27.7603 31.5153 26.2848 33.8011 22.2114C36.7903 16.8846 37.7723 11.3593 35.7004 6.70838C34.0312 2.96146 29.3737 1 25.7478 1Z" fill="#1F2937"/>
<path d="M29.0102 22.5573L28.5226 22.4466C28.4656 22.6977 28.6085 22.9509 28.8529 23.0319C29.0972 23.1129 29.3631 22.9952 29.4674 22.7598L29.0102 22.5573ZM27.0669 7.91463L27.4096 7.55052L27.4096 7.55052L27.0669 7.91463ZM12.5635 1.63192L12.5635 2.13192L12.5635 2.13192L12.5635 1.63192ZM3.93059 6.19212L4.28373 6.54609L3.93059 6.19212ZM1.16797 12.7378L0.667975 12.7378L0.667975 14.6167L1.60184 12.9863L1.16797 12.7378ZM8.76545 7.05289L8.82846 7.54891L8.82846 7.54891L8.76545 7.05289ZM24.7227 11.9341L24.4006 12.3165L24.4006 12.3165L24.7227 11.9341ZM22.8764 29.4634L22.9704 28.9724C22.7175 28.924 22.4692 29.0756 22.3966 29.3226C22.3241 29.5697 22.4511 29.8314 22.69 29.9274L22.8764 29.4634ZM37.4807 27.0386L37.8552 27.3699L37.8552 27.3699L37.4807 27.0386ZM43.2922 12.3682L42.7924 12.3849L42.7924 12.3849L43.2922 12.3682ZM38.4366 3.91196L38.0954 4.27748L38.0954 4.27748L38.4366 3.91196ZM31.7873 1.37511L31.7707 0.875388L29.885 0.938011L31.5542 1.81747L31.7873 1.37511ZM37.7723 8.94774L38.2659 8.86794L38.2659 8.86794L37.7723 8.94774ZM33.376 24.8349L33.7683 25.145L33.7683 25.145L33.376 24.8349ZM16.219 21.726L16.7008 21.8598C16.7697 21.6118 16.639 21.352 16.3988 21.2594C16.1585 21.1669 15.8873 21.2719 15.772 21.502L16.219 21.726ZM17.463 36.4443L17.1034 36.7917L17.1034 36.7917L17.463 36.4443ZM31.6509 43.4072L31.6746 42.9077L31.6746 42.9077L31.6509 43.4072ZM40.4912 39.2612L40.1553 38.8909L40.4912 39.2612ZM43.5623 32.8539L44.0618 32.8777L44.1512 31.0006L43.1408 32.585L43.5623 32.8539ZM36.0793 38.1167L36.1187 38.6151L36.1187 38.6151L36.0793 38.1167ZM19.9959 32.5404L19.656 32.9071L19.656 32.9071L19.9959 32.5404ZM23.3593 16.3313L23.2292 16.8141C23.4778 16.8811 23.7367 16.7483 23.8273 16.5073C23.9179 16.2662 23.8107 15.9958 23.5795 15.8824L23.3593 16.3313ZM8.61486 17.6681L8.26595 17.31L8.26595 17.31L8.61486 17.6681ZM1.7281 31.8678L2.22768 31.8883L2.22768 31.8883L1.7281 31.8678ZM5.94125 40.6602L6.3086 40.321L5.94125 40.6602ZM12.3835 43.6824L12.363 44.182L14.2479 44.2591L12.6487 43.2585L12.3835 43.6824ZM7.03882 36.1641L7.53377 36.0932L7.53377 36.0932L7.03882 36.1641ZM12.5443 20.1696L12.1762 19.8313L12.1762 19.8313L12.5443 20.1696ZM44 16.469H44.5C44.5 16.2214 44.3189 16.0111 44.074 15.9745C43.8292 15.9378 43.5944 16.0858 43.5219 16.3225L44 16.469ZM39.4827 35.8356L39.7328 36.2686L39.7328 36.2686L39.4827 35.8356ZM23.367 33.8868L23.606 33.4476L23.606 33.4476L23.367 33.8868ZM17.7509 26.8222L18.1794 26.5645C18.0535 26.3553 17.7951 26.2676 17.5679 26.3569C17.3407 26.4463 17.2112 26.6866 17.2617 26.9255L17.7509 26.8222ZM26.2971 31.6943L26.359 31.1982L26.359 31.1982L26.2971 31.6943ZM38.0176 28.2839L38.3679 28.6406L38.0176 28.2839ZM28.8645 44V44.5C29.1277 44.5 29.3458 44.2961 29.3634 44.0335C29.3811 43.771 29.1922 43.5397 28.9314 43.5045L28.8645 44ZM18.4962 44L18.4962 44.5H18.4962V44ZM9.4524 39.4933L9.01994 39.7442L9.01994 39.7442L9.4524 39.4933ZM11.4058 23.4153L11.8445 23.6552L11.8445 23.6552L11.4058 23.4153ZM18.487 17.8124L18.7438 18.2414C18.9533 18.1159 19.0416 17.8575 18.9526 17.6301C18.8635 17.4026 18.6232 17.2728 18.3842 17.323L18.487 17.8124ZM13.6034 26.3386L14.0995 26.4007L14.0995 26.4007L13.6034 26.3386ZM17.0219 38.0317L16.669 38.3859L16.669 38.3859L17.0219 38.0317ZM1 28.3656L0.500001 28.3656C0.500001 28.6096 0.676114 28.818 0.916704 28.8587C1.15729 28.8993 1.39209 28.7604 1.47225 28.5299L1 28.3656ZM1 18.2747L1.5 18.2747L1.5 18.2747L1 18.2747ZM6.24144 9.18142L6.00774 8.73939L6.00774 8.73939L6.24144 9.18142ZM22.2727 11.7313L22.0174 12.1612L22.0174 12.1612L22.2727 11.7313ZM27.6195 19.0008L27.1817 19.2423C27.2995 19.456 27.5546 19.5534 27.7849 19.4727C28.0153 19.3919 28.1537 19.1566 28.1123 18.916L27.6195 19.0008ZM19.2623 13.8127L19.1819 14.3062L19.1819 14.3062L19.2623 13.8127ZM7.42187 16.7827L7.74715 17.1624L7.74715 17.1624L7.42187 16.7827ZM16.0416 1L16.0416 0.5C15.7879 0.5 15.5744 0.689999 15.545 0.941984C15.5155 1.19397 15.6795 1.42806 15.9263 1.48654L16.0416 1ZM25.7478 1L25.7478 0.5L25.7478 0.5L25.7478 1ZM35.7004 6.70838L35.2436 6.91185L35.2436 6.91185L35.7004 6.70838ZM33.8011 22.2114L33.3651 21.9667L33.3651 21.9667L33.8011 22.2114ZM26.204 28.0681L25.952 27.6363C25.7411 27.7594 25.6499 28.0169 25.7365 28.2453C25.823 28.4736 26.0619 28.6061 26.3014 28.5585L26.204 28.0681ZM31.2379 19.359L31.7333 19.4266L31.7333 19.4266L31.2379 19.359ZM27.7621 7.09015L28.1286 6.75002L28.1286 6.75002L27.7621 7.09015ZM29.4674 22.7598C30.1735 21.1653 30.9166 18.5691 30.8625 15.7757C30.8082 12.974 29.9492 9.94063 27.4096 7.55052L26.7242 8.27873C29.0169 10.4364 29.8121 13.1831 29.8627 15.7951C29.9134 18.4154 29.2121 20.8667 28.553 22.3549L29.4674 22.7598ZM27.4096 7.55052C24.9347 5.22136 21.9944 3.61979 19.3 2.60022C16.6115 1.58289 14.1327 1.13194 12.5635 1.13192L12.5635 2.13192C13.9808 2.13194 16.3376 2.54845 18.9461 3.5355C21.5487 4.52033 24.3668 6.06008 26.7242 8.27873L27.4096 7.55052ZM12.5635 1.13192C11.0802 1.13189 9.9566 1.12561 8.62869 1.74935C7.3287 2.35998 5.86349 3.55747 3.57745 5.83816L4.28373 6.54609C6.56863 4.26655 7.9267 3.18391 9.05384 2.65447C10.1531 2.13815 11.0605 2.13189 12.5635 2.13192L12.5635 1.13192ZM3.57745 5.83816C2.18792 7.22443 1.43012 8.19263 1.04483 9.22563C0.661776 10.2526 0.667975 11.2983 0.667975 12.7378L1.66797 12.7378C1.66797 11.2489 1.67417 10.3998 1.98178 9.5751C2.28713 8.75641 2.91064 7.91596 4.28373 6.54609L3.57745 5.83816ZM1.60184 12.9863C3.61226 9.47634 5.97176 7.91177 8.82846 7.54891L8.70245 6.55688C5.47439 6.96691 2.8676 8.76444 0.734106 12.4893L1.60184 12.9863ZM8.82846 7.54891C12.8648 7.0362 18.9051 7.68814 24.4006 12.3165L25.0448 11.5517C19.2919 6.70648 12.9538 6.01687 8.70245 6.55688L8.82846 7.54891ZM24.4006 12.3165C28.7339 15.9661 28.9339 20.6355 28.5226 22.4466L29.4978 22.6681C29.9777 20.5549 29.7103 15.481 25.0448 11.5517L24.4006 12.3165ZM22.69 29.9274C24.3106 30.5783 26.9357 31.2328 29.7317 31.0859C32.5357 30.9386 35.5454 29.9815 37.8552 27.3699L37.1062 26.7074C35.0208 29.0653 32.2951 29.9499 29.6792 30.0873C27.0553 30.2251 24.5758 29.6072 23.0628 28.9995L22.69 29.9274ZM37.8552 27.3699C40.1063 24.8246 41.6131 21.8393 42.5449 19.1185C43.4747 16.4037 43.8441 13.9167 43.7919 12.3515L42.7924 12.3849C42.8396 13.7975 42.5008 16.1609 41.5989 18.7945C40.6989 21.422 39.2503 24.283 37.1062 26.7074L37.8552 27.3699ZM43.7919 12.3515C43.7426 10.8725 43.7115 9.75126 43.0421 8.44734C42.387 7.17114 41.1385 5.74992 38.7777 3.54644L38.0954 4.27748C40.4551 6.48 41.5848 7.79804 42.1525 8.90402C42.706 9.98229 42.7425 10.8862 42.7924 12.3849L43.7919 12.3515ZM38.7777 3.54644C37.3427 2.20696 36.3477 1.48379 35.3005 1.13415C34.2596 0.786581 33.2129 0.827494 31.7707 0.875388L31.8039 1.87484C33.2953 1.82531 34.1468 1.80318 34.9838 2.08267C35.8146 2.36007 36.6775 2.95404 38.0954 4.27748L38.7777 3.54644ZM31.5542 1.81747C35.1285 3.70062 36.8189 6.18333 37.2787 9.02753L38.2659 8.86794C37.749 5.67071 35.8317 2.94083 32.0204 0.932754L31.5542 1.81747ZM37.2787 9.02753C37.8716 12.6949 37.4379 18.891 32.9838 24.5249L33.7683 25.145C38.4306 19.2478 38.8939 12.7524 38.2659 8.86794L37.2787 9.02753ZM32.9838 24.5249C29.4718 28.9671 24.7998 29.3225 22.9704 28.9724L22.7824 29.9545C24.914 30.3625 29.9871 29.9277 33.7683 25.145L32.9838 24.5249ZM15.772 21.502C14.9908 23.0612 14.1249 25.6193 14.046 28.4121C13.9668 31.2132 14.6805 34.2839 17.1034 36.7917L17.8226 36.0969C15.6353 33.833 14.9718 31.0518 15.0456 28.4404C15.1196 25.8206 15.9369 23.4053 16.6661 21.95L15.772 21.502ZM17.1034 36.7917C19.4646 39.2356 22.3254 40.9747 24.9683 42.1208C27.6053 43.2643 30.0599 43.8322 31.6272 43.9066L31.6746 42.9077C30.2589 42.8406 27.9247 42.3129 25.3661 41.2033C22.8133 40.0963 20.0717 38.4247 17.8226 36.0969L17.1034 36.7917ZM31.6272 43.9066C33.1089 43.9769 34.2309 44.0364 35.587 43.4764C36.9146 42.928 38.4351 41.8013 40.8271 39.6315L40.1553 38.8909C37.7644 41.0596 36.3563 42.0766 35.2052 42.5521C34.0826 43.0157 33.1759 42.979 31.6746 42.9077L31.6272 43.9066ZM40.8271 39.6315C42.2811 38.3127 43.0841 37.3815 43.5181 36.368C43.9496 35.3603 43.9932 34.3155 44.0618 32.8777L43.0629 32.8301C42.992 34.3173 42.9454 35.1651 42.5989 35.9743C42.2549 36.7776 41.592 37.5876 40.1553 38.8909L40.8271 39.6315ZM43.1408 32.585C42.0401 34.3108 40.9755 35.508 39.8399 36.3032C38.7122 37.0927 37.4895 37.5036 36.0399 37.6182L36.1187 38.6151C37.7265 38.4879 39.1243 38.0249 40.4134 37.1223C41.6945 36.2254 42.8428 34.912 43.9839 33.1227L43.1408 32.585ZM36.0399 37.6182C32.311 37.9132 25.5958 37.0491 20.3358 32.1737L19.656 32.9071C25.1807 38.0278 32.2043 38.9248 36.1187 38.6151L36.0399 37.6182ZM20.3358 32.1737C16.1812 28.323 16.2038 23.6494 16.7008 21.8598L15.7373 21.5922C15.1573 23.6803 15.1828 28.7611 19.656 32.9071L20.3358 32.1737ZM23.5795 15.8824C22.0118 15.1133 19.4426 14.2663 16.6434 14.2057C13.8361 14.145 10.7636 14.8766 8.26595 17.31L8.96378 18.0262C11.2189 15.8292 14.0029 15.1488 16.6218 15.2055C19.2488 15.2623 21.6754 16.0621 23.1391 16.7802L23.5795 15.8824ZM8.26595 17.31C5.83178 19.6815 4.10713 22.547 2.97545 25.1913C1.84629 27.8297 1.2929 30.2826 1.22852 31.8472L2.22768 31.8883C2.28579 30.4761 2.7994 28.1443 3.8948 25.5847C4.98769 23.0311 6.64518 20.2852 8.96378 18.0262L8.26595 17.31ZM1.22852 31.8472C1.16768 33.3258 1.11528 34.4463 1.68579 35.7962C2.24418 37.1174 3.38356 38.6272 5.57389 40.9994L6.3086 40.321C4.11923 37.9498 3.09079 36.5518 2.60691 35.4069C2.13515 34.2907 2.16603 33.3866 2.22768 31.8883L1.22852 31.8472ZM5.57389 40.9994C6.90539 42.4414 7.84383 43.2363 8.86216 43.6626C9.87441 44.0862 10.9213 44.1229 12.363 44.182L12.4039 43.1828C10.9129 43.1218 10.0622 43.0808 9.24827 42.7401C8.44043 42.402 7.62414 41.7458 6.3086 40.321L5.57389 40.9994ZM12.6487 43.2585C10.9197 42.1767 9.74972 41.0984 8.95942 39.9462C8.17164 38.7976 7.74209 37.548 7.53377 36.0932L6.54387 36.235C6.76928 37.8092 7.24312 39.2119 8.13477 40.5118C9.0239 41.8081 10.3094 42.9744 12.1183 44.1062L12.6487 43.2585ZM7.53377 36.0932C7.03466 32.6076 8.05039 25.7977 12.9124 20.508L12.1762 19.8313C7.08918 25.3658 6.00702 32.4859 6.54387 36.235L7.53377 36.0932ZM12.9124 20.508C16.7452 16.3379 21.4309 16.3295 23.2292 16.8141L23.4894 15.8485C21.394 15.2839 16.3026 15.3419 12.1762 19.8313L12.9124 20.508ZM43.5 16.469V26.7152H44.5V16.469H43.5ZM43.5 26.7152C43.5 29.9134 42.5621 33.4796 39.2326 35.4027L39.7328 36.2686C43.517 34.0829 44.5 30.0628 44.5 26.7152H43.5ZM39.2326 35.4027C37.0417 36.6682 34.4817 36.9131 31.7807 36.4689C29.077 36.0243 26.2625 34.8932 23.606 33.4476L23.128 34.326C25.8433 35.8036 28.767 36.9868 31.6184 37.4557C34.4724 37.925 37.2844 37.6828 39.7328 36.2686L39.2326 35.4027ZM23.606 33.4476C19.6622 31.3015 18.545 28.1637 18.2401 26.719L17.2617 26.9255C17.6079 28.5664 18.8559 32.0012 23.128 34.326L23.606 33.4476ZM17.3224 27.0799C18.2511 28.6241 21.4053 31.5882 26.2352 32.1905L26.359 31.1982C21.8526 30.6362 18.9599 27.8624 18.1794 26.5645L17.3224 27.0799ZM26.2352 32.1905C29.1966 32.5598 31.4066 32.5008 33.3008 31.9201C35.2034 31.3369 36.7358 30.2431 38.3679 28.6406L37.6673 27.9271C36.0976 29.4683 34.6998 30.4453 33.0077 30.964C31.3071 31.4854 29.2579 31.5597 26.359 31.1982L26.2352 32.1905ZM38.3679 28.6406C42.0288 25.0462 43.5925 19.507 44.4781 16.6154L43.5219 16.3225C42.6169 19.2775 41.1127 24.5443 37.6673 27.9271L38.3679 28.6406ZM28.8645 43.5H18.4962V44.5H28.8645V43.5ZM18.4962 43.5C15.1264 43.5 11.8155 42.5693 9.88486 39.2423L9.01994 39.7442C11.2078 43.5143 14.9596 44.5 18.4962 44.5L18.4962 43.5ZM9.88486 39.2423C8.61676 37.0571 8.37127 34.5039 8.81639 31.8099C9.26197 29.113 10.3956 26.3054 11.8445 23.6552L10.9671 23.1754C9.48596 25.8845 8.29985 28.8017 7.82977 31.6468C7.35922 34.4948 7.60208 37.301 9.01994 39.7442L9.88486 39.2423ZM11.8445 23.6552C13.9954 19.7211 17.1407 18.606 18.5898 18.3017L18.3842 17.323C16.7404 17.6683 13.2976 18.9129 10.9671 23.1754L11.8445 23.6552ZM18.2302 17.3833C16.6828 18.3096 13.7112 21.4566 13.1073 26.2764L14.0995 26.4007C14.6627 21.9061 17.4424 19.0203 18.7438 18.2414L18.2302 17.3833ZM13.1073 26.2764C12.7372 29.2299 12.7892 31.4422 13.3677 33.336C13.9492 35.2394 15.0466 36.7695 16.669 38.3859L17.3748 37.6774C15.8184 36.1268 14.8403 34.7336 14.3241 33.0439C13.805 31.3446 13.7371 29.2938 14.0995 26.4007L13.1073 26.2764ZM16.669 38.3859C18.1199 39.8314 20.3396 41.2447 22.578 42.3472C24.8143 43.4487 27.132 44.2707 28.7977 44.4955L28.9314 43.5045C27.4187 43.3003 25.212 42.5298 23.0199 41.4502C20.8301 40.3716 18.7176 39.0152 17.3748 37.6774L16.669 38.3859ZM1.5 28.3656L1.5 18.2747L0.5 18.2747L0.500001 28.3656L1.5 28.3656ZM1.5 18.2747C1.5 15.1407 3.04478 11.4371 6.47515 9.62344L6.00774 8.73939C2.17508 10.7658 0.5 14.863 0.5 18.2747L1.5 18.2747ZM6.47515 9.62344C8.71212 8.44073 11.2795 8.29163 13.9619 8.83646C16.647 9.38182 19.417 10.6173 22.0174 12.1612L22.5279 11.3014C19.87 9.72327 16.9928 8.43163 14.161 7.85647C11.3266 7.28077 8.50753 7.41774 6.00774 8.73939L6.47515 9.62344ZM22.0174 12.1612C25.8778 14.4532 26.8764 17.6305 27.1268 19.0856L28.1123 18.916C27.8279 17.2633 26.7098 13.7842 22.5279 11.3014L22.0174 12.1612ZM28.0574 18.7594C27.1873 17.1815 24.1465 14.1016 19.3426 13.3192L19.1819 14.3062C23.664 15.0362 26.4504 17.9162 27.1817 19.2423L28.0574 18.7594ZM19.3426 13.3192C16.3933 12.8388 14.2049 12.8417 12.302 13.3646C10.3948 13.8888 8.82609 14.9214 7.09659 16.4029L7.74715 17.1624C9.4261 15.7242 10.8632 14.7971 12.567 14.3289C14.2749 13.8595 16.3025 13.8372 19.1819 14.3062L19.3426 13.3192ZM7.09659 16.4029C5.65207 17.6403 4.26076 19.8932 3.11928 22.1407C1.96859 24.4064 1.03629 26.7394 0.527754 28.2014L1.47225 28.5299C1.96818 27.1041 2.88344 24.8135 4.01088 22.5936C5.14753 20.3555 6.46492 18.2608 7.74715 17.1624L7.09659 16.4029ZM16.0416 1.5L25.7478 1.5L25.7478 0.5L16.0416 0.5L16.0416 1.5ZM25.7478 1.5C27.478 1.5 29.4693 1.96988 31.2254 2.8918C32.9815 3.81367 34.4667 5.16772 35.2436 6.91185L36.1571 6.50492C35.2649 4.50212 33.5867 3.00199 31.6903 2.00639C29.7939 1.01085 27.6435 0.5 25.7478 0.5L25.7478 1.5ZM35.2436 6.91185C37.2264 11.3627 36.3127 16.7139 33.3651 21.9667L34.2372 22.4561C37.2679 17.0553 38.3181 11.3559 36.1571 6.50492L35.2436 6.91185ZM33.3651 21.9667C31.1692 25.8798 27.5548 27.2901 26.1067 27.5777L26.3014 28.5585C27.9532 28.2305 31.8614 26.6898 34.2372 22.4561L33.3651 21.9667ZM26.4561 28.4999C27.2569 28.0325 28.4077 26.9555 29.4358 25.4221C30.4705 23.8788 31.4038 21.8398 31.7333 19.4266L30.7425 19.2913C30.437 21.5287 29.5703 23.4257 28.6052 24.8652C27.6335 26.3145 26.5849 27.2668 25.952 27.6363L26.4561 28.4999ZM31.7333 19.4266C32.1379 16.4633 32.0367 14.1404 31.4218 12.1228C30.8058 10.1014 29.6873 8.42951 28.1286 6.75002L27.3956 7.43028C28.8891 9.03947 29.9071 10.5829 30.4652 12.4143C31.0245 14.2493 31.135 16.4165 30.7425 19.2913L31.7333 19.4266ZM28.1286 6.75002C24.9795 3.35695 20.6646 1.58125 16.1568 0.513463L15.9263 1.48654C20.3478 2.53388 24.4403 4.24599 27.3956 7.43028L28.1286 6.75002Z" fill="white"/>
</svg>
