<svg width="32" height="32" viewBox="0 0 32 32" fill="none" xmlns="http://www.w3.org/2000/svg">
<path fill-rule="evenodd" clip-rule="evenodd" d="M25.122 18.2172C27.6451 15.4084 28.5152 11.6085 28.4582 9.92549C28.4012 8.24246 28.3606 7.98285 25.4725 5.14598C23.9518 3.65222 23.3141 3.50673 20.0051 3.5C19.5022 3.50002 19.0066 3.5 18.3866 3.5L12.8145 3.5C15.3776 4.09774 17.7907 5.0834 19.5429 6.94218C21.2951 8.80095 21.9958 10.5768 21.5382 13.8766C21.1752 16.4948 19.7996 18.8263 16.5287 19.5078C19.4031 20.7735 23.3505 20.1894 25.122 18.2172Z" fill="black"/>
<path fill-rule="evenodd" clip-rule="evenodd" d="M14.0169 24.7818C16.8764 27.2602 20.745 28.1148 22.4584 28.0588C24.1719 28.0028 24.6048 27.7974 27.126 25.3209C28.8018 23.6749 28.9931 23.006 29 19.7558C29 19.2618 29 18.775 29 18.1659V12.6928C28.3915 15.2103 27.388 17.5807 25.4956 19.3017C23.6033 21.0228 21.7953 21.7111 18.436 21.2617C15.7705 20.905 13.3968 19.5539 12.703 16.341C11.4144 19.1644 12.0092 23.0417 14.0169 24.7818Z" fill="black"/>
<path fill-rule="evenodd" clip-rule="evenodd" d="M7.03446 13.8328C4.51132 16.6416 3.64127 20.4415 3.69827 22.1245C3.75528 23.8075 3.92606 24.1951 6.68395 26.904C8.23962 28.4321 8.84236 28.5433 12.1513 28.55C12.6542 28.55 13.1498 28.55 13.7699 28.55H19.3419C16.7789 27.9523 14.3657 26.9666 12.6136 25.1078C10.8614 23.249 10.1606 21.4732 10.6182 18.1734C10.9813 15.5552 12.3569 13.2237 15.6278 12.5422C12.7534 11.2765 8.80599 11.8606 7.03446 13.8328Z" fill="black"/>
<path fill-rule="evenodd" clip-rule="evenodd" d="M17.9831 7.169C15.0003 4.83501 11.255 3.83602 9.54157 3.89201C8.23962 3.93456 7.95432 4.04166 4.77048 7.169C3.28371 8.62939 3.00685 8.94482 3 12.1951C3.00002 12.6891 3 13.1759 3 13.7849L3 19.2581C3.60854 16.7405 4.61201 14.3702 6.50436 12.6491C8.39671 10.928 10.2047 10.2397 13.564 10.6892C16.2295 11.0458 18.8491 12.3172 19.5429 15.5301C20.8314 12.7066 20.332 9.00699 17.9831 7.169Z" fill="black"/>
</svg>
