<svg width="1440" height="260" viewBox="0 0 1440 260" fill="none" xmlns="http://www.w3.org/2000/svg">
<g opacity="0.34">
<path d="M1561.06 255.764L1547.77 258.639M1561.06 255.764H1521.66M1561.06 255.764L1574.8 252.794M1561.06 255.764H1588.96M1547.77 258.639L1552.6 258.638L1557.39 258.631L1562.08 258.614L1566.62 258.579L1570.96 258.523L1575.06 258.439L1578.87 258.322L1582.41 258.173L1585.44 257.967L1588.2 257.728L1588.96 257.644V255.764M1547.77 258.639H1509M1509 258.639H1470.24M1509 258.639L1521.66 255.764M1470.24 258.639H1431.47M1470.24 258.639L1482.27 255.764M1431.47 258.639H1392.71M1431.47 258.639L1442.87 255.764M1392.71 258.639H1353.94M1392.71 258.639L1403.47 255.764M1353.94 258.639H1315.18M1353.94 258.639L1364.07 255.764M1315.18 258.639H1276.41M1315.18 258.639L1324.68 255.764M1276.41 258.639H1237.65M1276.41 258.639L1285.28 255.764M1237.65 258.639H1198.88M1237.65 258.639L1245.88 255.764M1198.88 258.639H1160.12M1198.88 258.639L1206.48 255.764M1160.12 258.639H1121.36M1160.12 258.639L1167.08 255.764M1121.36 258.639H1082.59M1121.36 258.639L1127.69 255.764M1082.59 258.639H1043.83M1082.59 258.639L1084 257.928L1086.13 256.853L1088.29 255.764M1043.83 258.639H1005.06M1043.83 258.639L1045.08 257.928L1048.89 255.764M1005.06 258.639H966.299M1005.06 258.639L1009.49 255.764M966.299 258.639H927.534M966.299 258.639L967.708 257.571L969.136 256.492L969.615 256.128L970.097 255.764M927.534 258.639H888.769M927.534 258.639L928.708 257.571L929.104 257.213L929.5 256.853L930.7 255.764M888.769 258.639H850.005M888.769 258.639L891.302 255.764M850.005 258.639L850.239 258.284L850.474 257.928L851.663 256.128L851.904 255.764M850.005 258.639H811.241M811.241 258.639H772.476M811.241 258.639L812.507 255.764M772.476 258.639H733.711M772.476 258.639L772.711 257.571L773.109 255.764M733.711 258.639H694.947M733.711 258.639V255.764M694.947 258.639H656.182M694.947 258.639L694.712 257.571L694.314 255.764M656.182 258.639H617.418M656.182 258.639L654.916 255.764M617.418 258.639L617.183 258.284L616.949 257.928L615.76 256.128L615.518 255.764M617.418 258.639H578.653M578.653 258.639H539.888M578.653 258.639L576.442 256.128L576.121 255.764M539.888 258.639H501.124M539.888 258.639L538.714 257.571L538.319 257.213L537.524 256.492L537.125 256.128L536.723 255.764M501.124 258.639H462.36M501.124 258.639L499.715 257.571L498.287 256.492L497.807 256.128L497.325 255.764M462.36 258.639H423.596M462.36 258.639L457.929 255.764M423.596 258.639H384.83M423.596 258.639L422.345 257.928L418.531 255.764M384.83 258.639H346.066M384.83 258.639L379.133 255.764M346.066 258.639H307.302M346.066 258.639L339.736 255.764M307.302 258.639H268.537M307.302 258.639L300.338 255.764M268.537 258.639H229.773M268.537 258.639L260.94 255.764M229.773 258.639H191.008M229.773 258.639L221.543 255.764M191.008 258.639H152.244M191.008 258.639L182.145 255.764M152.244 258.639H113.479M152.244 258.639L142.747 255.764M113.479 258.639H74.7148M113.479 258.639L103.35 255.764M74.7148 258.639H35.9506M74.7148 258.639L63.952 255.764M35.9506 258.639H-2.81455M35.9506 258.639L24.5544 255.764M-2.81455 258.639H-41.5788M-2.81455 258.639L-14.8424 255.764M-41.5788 258.639H-80.3431M-41.5788 258.639L-54.2401 255.764M-80.3431 258.639L-85.1806 258.638L-89.9682 258.631L-94.656 258.614L-99.1969 258.579L-103.541 258.523L-107.642 258.439L-111.45 258.322L-114.985 258.173L-118.019 257.967L-120.78 257.728L-121.539 257.644V255.764M-80.3431 258.639L-93.6377 255.764M-14.8424 255.764H24.5544M-14.8424 255.764H-54.2401M-14.8424 255.764L-27.2712 252.794M24.5544 255.764L12.7804 252.794M24.5544 255.764H63.952M142.747 255.764H182.145M142.747 255.764H103.35M142.747 255.764L140.325 255.031L132.936 252.794M182.145 255.764L172.988 252.794M182.145 255.764H221.543M300.338 255.764H339.736M300.338 255.764H260.94M300.338 255.764L298.561 255.031L297.667 254.662L293.142 252.794M339.736 255.764L338.929 255.398L338.12 255.031L333.195 252.794M339.736 255.764H379.133M457.929 255.764L457.364 255.398L453.349 252.794M457.929 255.764H497.325M457.929 255.764H418.531M497.325 255.764L496.357 255.031L495.869 254.662L495.38 254.292L493.401 252.794M497.325 255.764H536.723M615.518 255.764H654.916M615.518 255.764H576.121M615.518 255.764L613.557 252.794M654.916 255.764L654.755 255.398L654.594 255.031L654.43 254.662L653.939 253.546L653.608 252.794M654.916 255.764H694.314M773.109 255.764H812.507M773.109 255.764H733.711M773.109 255.764L773.763 252.794M812.507 255.764L812.668 255.398L812.829 255.031L812.992 254.662L813.814 252.794M812.507 255.764H851.904M930.7 255.764H970.097M930.7 255.764H891.302M930.7 255.764L931.507 255.031L933.142 253.546L933.555 253.171L933.97 252.794M970.097 255.764L971.066 255.031L971.554 254.662L972.043 254.292L974.022 252.794M970.097 255.764H1009.49M1088.29 255.764H1127.69M1088.29 255.764H1048.89M1088.29 255.764L1089.74 255.031L1090.47 254.662L1094.18 252.794M1127.69 255.764L1128.49 255.398L1129.3 255.031L1134.23 252.794M1127.69 255.764H1167.08M1245.88 255.764H1285.28M1245.88 255.764H1206.48M1245.88 255.764L1247.98 255.031L1249.04 254.662L1254.38 252.794M1285.28 255.764L1294.44 252.794M1285.28 255.764H1324.68M1403.47 255.764H1442.87M1403.47 255.764H1364.07M1403.47 255.764L1414.59 252.794M1442.87 255.764L1454.64 252.794M1442.87 255.764H1482.27M-121.677 228.881H-121.539M-82.0233 228.881L-66.9815 232.675M-82.0233 228.881L-97.6414 224.942M-82.0233 228.881H-36.7048M-82.0233 228.881H-121.539M-66.9815 232.675H-111.464M-66.9815 232.675L-52.4841 236.332M-66.9815 232.675H-22.4987M-111.464 232.675L-96.1616 236.332M-111.464 232.675H-121.539M-111.464 232.675L-121.539 230.268M-67.1615 243.262H-25.0101M-67.1615 243.262L-53.408 246.549M-67.1615 243.262H-109.312M-67.1615 243.262L-81.4041 239.859M-25.0101 243.262L-11.98 246.549M-25.0101 243.262L-38.5026 239.859M-25.0101 243.262H17.1413M-53.408 246.549H-11.98M-53.408 246.549L-40.1186 249.724M-53.408 246.549H-94.8351M-11.98 246.549H29.4471M-11.98 246.549L0.609108 249.724M-121.973 168.996H-121.539M-85.406 168.996L-66.0096 175.287M-85.406 168.996L-105.766 162.393M-85.406 168.996H-26.897M-85.406 168.996H-121.539M-66.0096 175.287L-47.5103 181.286M-66.0096 175.287H-8.88684M-66.0096 175.287H-121.539M-103.312 181.286H-47.5103M-103.312 181.286L-84.3877 187.014M-103.312 181.286H-121.539M-103.312 181.286L-121.539 175.769M-66.3009 192.489H-12.9671M-66.3009 192.489L-48.9963 197.726M-66.3009 192.489H-119.635M-66.3009 192.489L-84.3877 187.014M-12.9671 192.489L3.18465 197.726M-12.9671 192.489L-29.8485 187.014M-12.9671 192.489H40.3676M-48.9963 197.726H3.18465M-48.9963 197.726H-101.176M-48.9963 197.726L-32.4241 202.742M3.18465 197.726L18.6514 202.742M3.18465 197.726H55.3648M-1.30004 212.163H47.7005M-1.30004 212.163L13.3328 216.592M-1.30004 212.163H-50.3006M-1.30004 212.163L-16.5396 207.551M47.7005 212.163L61.3577 216.592M47.7005 212.163L33.4775 207.551M47.7005 212.163H96.7019M13.3328 216.592H61.3577M13.3328 216.592H-34.6923M13.3328 216.592L27.3945 220.848M61.3577 216.592L74.4823 220.848M61.3577 216.592H109.384M53.9322 228.881H99.2507M53.9322 228.881L66.467 232.675M53.9322 228.881H8.61374M53.9322 228.881L40.9173 224.942M99.2507 228.881L110.95 232.675M99.2507 228.881L87.1035 224.942M99.2507 228.881H144.569M66.467 232.675H110.95M66.467 232.675H21.9841M66.467 232.675L78.5483 236.332M110.95 232.675L122.226 236.332M110.95 232.675H155.433M101.443 243.262H143.595M101.443 243.262L112.301 246.549M101.443 243.262H59.2927M101.443 243.262L90.1993 239.859M143.595 243.262L153.728 246.549M143.595 243.262L133.1 239.859M143.595 243.262H185.746M112.301 246.549H153.728M112.301 246.549L122.793 249.724M112.301 246.549H70.8742M153.728 246.549H195.156M153.728 246.549L163.521 249.724M-91.5638 59.9429L-64.2652 72.3374M-91.5638 59.9429L-120.797 46.6705M-91.5638 59.9429H-9.03651M-91.5638 59.9429H-121.539M-64.2652 72.3374L-38.7137 83.938M-64.2652 72.3374H15.5323M-64.2652 72.3374H-121.539M-64.8194 105.045H7.77451M-64.8194 105.045L-41.4915 114.674M-64.8194 105.045L-89.5949 94.8189M-64.8194 105.045H-121.539M7.77451 105.045L28.9812 114.674M7.77451 105.045L-14.7489 94.8189M7.77451 105.045H80.3683M-41.4915 114.674H28.9812M-41.4915 114.674H-111.964M-41.4915 114.674L-19.4875 123.756M28.9812 114.674L48.9851 123.756M28.9812 114.674H99.4547M20.973 140.456H85.768M20.973 140.456L39.6166 148.151M20.973 140.456H-43.8212M20.973 140.456L1.30134 132.336M85.768 140.456L102.716 148.151M85.768 140.456L67.8835 132.336M85.768 140.456H150.562M39.6166 148.151H102.716M39.6166 148.151H-23.4831M39.6166 148.151L57.3087 155.454M102.716 148.151L118.8 155.454M102.716 148.151H165.815M90.1191 168.996H148.628M90.1191 168.996L105.359 175.287M90.1191 168.996H31.6111M90.1191 168.996L74.1224 162.393M148.628 168.996L162.482 175.287M148.628 168.996L134.084 162.393M148.628 168.996H207.136M105.359 175.287H162.482M105.359 175.287H48.2368M105.359 175.287L119.894 181.286M162.482 175.287L175.696 181.286M162.482 175.287H219.605M147.036 192.489H200.37M147.036 192.489L159.726 197.726M147.036 192.489H93.7014M147.036 192.489L133.772 187.014M200.37 192.489L211.907 197.726M200.37 192.489L188.312 187.014M200.37 192.489H253.704M159.726 197.726H211.907M159.726 197.726H107.546M159.726 197.726L171.878 202.742M211.907 197.726L222.955 202.742M211.907 197.726H264.087M194.703 212.163H243.703M194.703 212.163L205.434 216.592M194.703 212.163H145.702M194.703 212.163L183.528 207.551M243.703 212.163L244.945 212.727L253.459 216.592M243.703 212.163L233.545 207.551M243.703 212.163H292.705M205.434 216.592H253.459M205.434 216.592H157.409M205.434 216.592L215.746 220.848M253.459 216.592L262.833 220.848M253.459 216.592H301.484M235.206 228.881H280.526M235.206 228.881L244.399 232.675M235.206 228.881H189.888M235.206 228.881L225.662 224.942M280.526 228.881L288.882 232.675M280.526 228.881L277.31 227.421L271.848 224.942M280.526 228.881H325.844M244.399 232.675H288.882M244.399 232.675H199.916M244.399 232.675L253.258 236.332M288.882 232.675L296.936 236.332M288.882 232.675H333.365M270.048 243.262H312.199M270.048 243.262L278.011 246.549M270.048 243.262H227.897M270.048 243.262L261.803 239.859M312.199 243.262L317.652 245.737L318.547 246.144L319.439 246.549M312.199 243.262L304.703 239.859M312.199 243.262H354.351M278.011 246.549H319.439M278.011 246.549L285.704 249.724M278.011 246.549H236.583M319.439 246.549H360.866M319.439 246.549L326.432 249.724M-61.6629 -81.2468H51.9625M-61.6629 -81.2468L-25.885 -58.041M-61.6629 -81.2468L-100.978 -106.747M-61.6629 -81.2468L-121.539 -81.2473M51.9625 -81.2468L82.6294 -58.041M51.9625 -81.2468L18.2638 -106.747M51.9625 -81.2468H165.587M-25.885 -58.041H82.6294M-25.885 -58.041L6.81326 -36.833M-25.885 -58.041H-121.539M82.6294 -58.041L110.656 -36.833M82.6294 -58.041H191.143M64.4331 0.539642H160.045M64.4331 0.539642L89.9481 17.0891M64.4331 0.539642H-31.1777M64.4331 0.539642L36.8121 -17.3755M160.045 0.539642L181.914 17.0891M160.045 0.539642L136.369 -17.3755M160.045 0.539642H255.656M89.9481 17.0891H181.914M89.9481 17.0891H-2.01812M89.9481 17.0891L113.59 32.4227M181.914 17.0891L202.178 32.4227M181.914 17.0891H273.88M156.019 59.9429H238.546M156.019 59.9429L175.128 72.3374M156.019 59.9429H73.4907M156.019 59.9429L135.555 46.6705M238.546 59.9429L254.926 72.3374M238.546 59.9429L221.006 46.6705M238.546 59.9429H321.073M175.128 72.3374H254.926M175.128 72.3374H95.3299M175.128 72.3374L193.014 83.938M254.926 72.3374L270.256 83.938M254.926 72.3374H334.723M225.555 105.045H298.149M225.555 105.045L240.401 114.674M225.555 105.045H152.962M225.555 105.045L209.789 94.8189M298.149 105.045L310.874 114.674M298.149 105.045L284.635 94.8189M298.149 105.045H370.743M240.401 114.674H310.874M240.401 114.674H169.927M240.401 114.674L254.403 123.756M310.874 114.674L322.876 123.756M310.874 114.674H381.346M280.15 140.456H344.945M280.15 140.456L292.014 148.151M280.15 140.456H215.356M280.15 140.456L267.632 132.336M344.945 140.456L355.114 148.151M344.945 140.456L334.215 132.336M344.945 140.456H409.74M292.014 148.151H355.114M292.014 148.151H228.915M292.014 148.151L303.273 155.454M355.114 148.151L364.764 155.454M355.114 148.151H418.214M324.153 168.996H382.661M324.153 168.996L333.851 175.287M324.153 168.996H265.644M324.153 168.996L313.973 162.393M382.661 168.996L390.974 175.287M382.661 168.996L373.935 162.393M382.661 168.996H441.169M333.851 175.287H390.974M333.851 175.287H276.728M333.851 175.287L343.1 181.286M390.974 175.287L398.902 181.286M390.974 175.287H448.097M360.372 192.489H413.707M360.372 192.489L368.448 197.726M360.372 192.489H307.038M360.372 192.489L351.932 187.014M413.707 192.489L420.628 197.726M413.707 192.489L406.472 187.014M413.707 192.489H467.041M368.448 197.726H420.628M368.448 197.726H316.267M368.448 197.726L376.182 202.742M420.628 197.726L427.257 202.742M420.628 197.726H472.809M390.706 212.163H439.707M390.706 212.163L397.535 216.592M390.706 212.163H341.705M390.706 212.163L383.594 207.551M439.707 212.163L438.958 211.597L433.611 207.551M439.707 212.163L445.56 216.592M439.707 212.163H488.708M397.535 216.592H445.56M397.535 216.592H349.51M397.535 216.592L404.097 220.848M445.56 216.592L451.185 220.848M445.56 216.592H493.585M416.481 228.881H461.799M416.481 228.881L422.331 232.675M416.481 228.881H371.163M416.481 228.881L410.408 224.942M461.799 228.881L466.813 232.675M461.799 228.881L459.871 227.421L458.569 226.436L456.594 224.942M461.799 228.881H507.118M422.331 232.675H466.813M422.331 232.675H377.848M422.331 232.675L427.968 236.332M466.813 232.675L468.647 234.062L469.855 234.976L471.646 236.332M466.813 232.675H511.296M438.653 243.262H480.804M438.653 243.262L442.47 245.737L443.72 246.549M438.653 243.262H396.502M438.653 243.262L434.072 240.291L433.406 239.859M480.804 243.262L484.076 245.737L484.612 246.144L485.148 246.549M480.804 243.262L478.575 241.576L476.307 239.859M480.804 243.262H522.955M443.72 246.549H485.148M443.72 246.549L448.616 249.724M443.72 246.549H402.293M485.148 246.549H526.575M485.148 246.549L489.344 249.724M392.837 -81.2468H506.461M392.837 -81.2468L408.17 -58.041M392.837 -81.2468H279.212M392.837 -81.2468L375.988 -106.747M506.461 -81.2468L516.684 -58.041M506.461 -81.2468L495.229 -106.747M506.461 -81.2468H620.087M408.17 -58.041H516.684M408.17 -58.041H299.656M408.17 -58.041L422.184 -36.833M516.684 -58.041L526.026 -36.833M516.684 -58.041H625.198M446.878 0.539642H542.489M446.878 0.539642L457.813 17.0891M446.878 0.539642H351.266M446.878 0.539642L435.04 -17.3755M542.489 0.539642L549.779 17.0891M542.489 0.539642L534.597 -17.3755M542.489 0.539642H638.101M457.813 17.0891H549.779M457.813 17.0891H365.847M457.813 17.0891L467.945 32.4227M549.779 17.0891L556.534 32.4227M549.779 17.0891H641.745M486.129 59.9429H568.656M486.129 59.9429L494.319 72.3374M486.129 59.9429H403.602M486.129 59.9429L477.359 46.6705M568.656 59.9429L574.116 72.3374M568.656 59.9429L562.81 46.6705M568.656 59.9429H651.184M494.319 72.3374H574.116M494.319 72.3374H414.521M494.319 72.3374L501.984 83.938M574.116 72.3374L579.226 83.938M574.116 72.3374H653.914M515.931 105.045H588.524M515.931 105.045L522.292 114.674M515.931 105.045H443.337M515.931 105.045L509.173 94.8189M588.524 105.045L592.765 114.674M588.524 105.045L584.019 94.8189M588.524 105.045H661.117M522.292 114.674H592.765M522.292 114.674H451.82M522.292 114.674L528.293 123.756M592.765 114.674L596.766 123.756M592.765 114.674H663.239M539.328 140.456H604.123M539.328 140.456L544.412 148.151M539.328 140.456H474.534M539.328 140.456L533.963 132.336M604.123 140.456L607.512 148.151M604.123 140.456L600.546 132.336M604.123 140.456H668.917M544.412 148.151H607.512M544.412 148.151H481.314M544.412 148.151L549.238 155.454M607.512 148.151L610.729 155.454M607.512 148.151H670.612M558.186 168.996H616.694M558.186 168.996L562.342 175.287M558.186 168.996H499.678M558.186 168.996L553.824 162.393M616.694 168.996L619.466 175.287M616.694 168.996L613.786 162.393M616.694 168.996H675.203M562.342 175.287H619.466M562.342 175.287H505.22M562.342 175.287L563.851 177.569L566.307 181.286M619.466 175.287L622.108 181.286M619.466 175.287H676.589M573.709 192.489H627.043M573.709 192.489L577.17 197.726M573.709 192.489H520.374M573.709 192.489L571.011 188.405L570.091 187.014M627.043 192.489L627.92 194.48L629.35 197.726M627.043 192.489L624.631 187.014M627.043 192.489H680.378M577.17 197.726L577.592 198.365L580.484 202.742M577.17 197.726H629.35M577.17 197.726H524.989M629.35 197.726L630.19 199.633L630.467 200.261L630.743 200.886L631.56 202.742M629.35 197.726H681.531M586.709 212.163H635.709M586.709 212.163L588.187 214.4L588.552 214.952L588.915 215.502L589.276 216.048L589.635 216.592M586.709 212.163H537.708M586.709 212.163L583.661 207.551M635.709 212.163L637.18 215.502L637.422 216.048L637.66 216.592M635.709 212.163L633.678 207.551M635.709 212.163H684.711M589.635 216.592H637.66M589.635 216.592H541.61M589.635 216.592L591.407 219.272L591.755 219.8L592.448 220.848M637.66 216.592L638.841 219.272L639.074 219.8L639.305 220.326L639.536 220.848M637.66 216.592H685.686M597.756 228.881H643.074M597.756 228.881L600.263 232.675M597.756 228.881H552.437M597.756 228.881L597.114 227.91L596.14 226.436L595.153 224.942M643.074 228.881L642.861 228.397L641.559 225.442L641.339 224.942M643.074 228.881L644.746 232.675M643.074 228.881H688.393M600.263 232.675H644.746M600.263 232.675H555.78M600.263 232.675L602.679 236.332M644.746 232.675L645.357 234.062L645.558 234.52L645.76 234.976L646.356 236.332M644.746 232.675H689.229M607.258 243.262H649.409M607.258 243.262L608.894 245.737L609.429 246.549M607.258 243.262H565.107M607.258 243.262L606.423 242L606.144 241.576L605.861 241.149L605.009 239.859M649.409 243.262L649.593 243.679L649.957 244.508L650.32 245.329L650.856 246.549M649.409 243.262L648.666 241.576L648.479 241.149L648.1 240.291L647.91 239.859M649.409 243.262H691.56M609.429 246.549H650.856M609.429 246.549L611.269 249.333L611.528 249.724M609.429 246.549H568.002M650.856 246.549L651.034 246.952L651.211 247.353L651.387 247.752L651.562 248.15L652.083 249.333L652.256 249.724M650.856 246.549H692.284M847.336 -81.2468H960.961M847.336 -81.2468L842.225 -58.041M847.336 -81.2468H733.711M847.336 -81.2468L852.953 -106.747M960.961 -81.2468L950.739 -58.041M960.961 -81.2468L972.194 -106.747M960.961 -81.2468H1074.59M842.225 -58.041H950.739M842.225 -58.041H733.711M842.225 -58.041L837.554 -36.833M950.739 -58.041L941.396 -36.833M950.739 -58.041H1059.25M829.322 0.539642H924.934M829.322 0.539642L825.677 17.0891M829.322 0.539642H733.711M829.322 0.539642L833.269 -17.3755M924.934 0.539642L917.644 17.0891M924.934 0.539642L932.825 -17.3755M924.934 0.539642H1020.54M825.677 17.0891H917.644M825.677 17.0891H733.711M825.677 17.0891L822.3 32.4227M917.644 17.0891L910.889 32.4227M917.644 17.0891H1009.61M816.239 59.9429H898.767M816.239 59.9429L813.509 72.3374M816.239 59.9429H733.711M816.239 59.9429L819.162 46.6705M898.767 59.9429L893.306 72.3374M898.767 59.9429L904.613 46.6705M898.767 59.9429H981.294M813.509 72.3374H893.306M813.509 72.3374H733.711M813.509 72.3374L810.954 83.938M893.306 72.3374L888.196 83.938M893.306 72.3374H973.104M806.305 105.045H878.899M806.305 105.045L804.184 114.674M806.305 105.045H733.711M806.305 105.045L808.557 94.8189M878.899 105.045L874.657 114.674M878.899 105.045L883.403 94.8189M878.899 105.045H951.492M804.184 114.674H874.657M804.184 114.674H733.711M804.184 114.674L802.184 123.756M874.657 114.674L870.657 123.756M874.657 114.674H945.13M798.505 140.456H863.3M798.505 140.456L796.811 148.151M798.505 140.456H733.711M798.505 140.456L800.294 132.336M863.3 140.456L859.911 148.151M863.3 140.456L866.876 132.336M863.3 140.456H928.095M796.811 148.151H859.911M796.811 148.151H733.711M796.811 148.151L795.202 155.454M859.911 148.151L856.694 155.454M859.911 148.151H923.01M792.219 168.996H850.728M792.219 168.996L790.834 175.287M792.219 168.996H733.711M792.219 168.996L793.674 162.393M850.728 168.996L847.957 175.287M850.728 168.996L853.637 162.393M850.728 168.996H909.236M790.834 175.287H847.957M790.834 175.287H733.711M790.834 175.287L789.513 181.286M847.957 175.287L845.314 181.286M847.957 175.287H905.08M787.045 192.489H840.38M787.045 192.489L785.891 197.726M787.045 192.489H733.711M787.045 192.489L788.251 187.014M840.38 192.489L838.355 197.084L838.072 197.726M840.38 192.489L842.791 187.014M840.38 192.489H893.714M785.891 197.726L785.752 198.365L784.787 202.742M785.891 197.726H838.072M785.891 197.726H733.711M838.072 197.726L837.232 199.633L836.956 200.261L836.68 200.886L835.863 202.742M838.072 197.726H890.252M782.712 212.163H831.713M782.712 212.163L781.736 216.592M782.712 212.163H733.711M782.712 212.163L783.088 210.456L783.215 209.881L783.342 209.303L783.598 208.138L783.728 207.551M831.713 212.163L830.242 215.502L829.761 216.592M831.713 212.163L833.745 207.551M831.713 212.163H880.714M781.736 216.592H829.761M781.736 216.592H733.711M781.736 216.592L780.799 220.848M829.761 216.592L828.582 219.272L828.348 219.8L828.118 220.326L827.887 220.848M829.761 216.592H877.787M779.03 228.881H824.348M779.03 228.881L778.194 232.675M779.03 228.881H733.711M779.03 228.881L779.898 224.942M824.348 228.881L824.562 228.397L825.864 225.442L826.084 224.942M824.348 228.881L822.677 232.675M824.348 228.881H869.667M778.194 232.675H822.677M778.194 232.675H733.711M778.194 232.675L777.389 236.332M822.677 232.675L822.066 234.062L821.864 234.52L821.663 234.976L821.066 236.332M822.677 232.675H867.16M775.863 243.262H818.014M775.863 243.262L775.138 246.549M775.863 243.262H733.711M775.863 243.262L776.612 239.859M818.014 243.262L817.83 243.679L817.464 244.508L817.284 244.92L816.923 245.737L816.745 246.144L816.565 246.549M818.014 243.262L818.757 241.576L818.944 241.149L819.323 240.291L819.513 239.859M818.014 243.262H860.165M775.138 246.549L775.05 246.952L774.961 247.353L774.874 247.752L774.439 249.724M775.138 246.549H816.565M775.138 246.549H733.711M816.565 246.549H857.994M816.565 246.549L816.212 247.353L816.035 247.752L815.861 248.15L815.34 249.333L815.167 249.724M1301.84 -81.2468H1415.46M1301.84 -81.2468L1276.28 -58.041M1301.84 -81.2468H1188.21M1301.84 -81.2468L1329.92 -106.747M1415.46 -81.2468L1384.79 -58.041M1415.46 -81.2468L1449.16 -106.747M1415.46 -81.2468H1529.09M1276.28 -58.041H1384.79M1276.28 -58.041H1167.77M1276.28 -58.041L1252.92 -36.833M1384.79 -58.041L1356.77 -36.833M1384.79 -58.041H1493.31M1211.77 0.539642H1307.38M1211.77 0.539642L1193.54 17.0891M1211.77 0.539642H1116.16M1211.77 0.539642L1231.5 -17.3755M1307.38 0.539642L1285.51 17.0891M1307.38 0.539642L1331.05 -17.3755M1307.38 0.539642H1402.99M1193.54 17.0891H1285.51M1193.54 17.0891H1101.58M1193.54 17.0891L1176.66 32.4227M1285.51 17.0891L1265.24 32.4227M1285.51 17.0891H1377.47M1146.35 59.9429H1228.88M1146.35 59.9429L1132.7 72.3374M1146.35 59.9429H1063.82M1146.35 59.9429L1160.97 46.6705M1228.88 59.9429L1212.5 72.3374M1228.88 59.9429L1246.42 46.6705M1228.88 59.9429H1311.4M1132.7 72.3374H1212.5M1132.7 72.3374H1052.9M1132.7 72.3374L1119.92 83.938M1212.5 72.3374L1197.17 83.938M1212.5 72.3374H1292.29M1096.68 105.045H1169.27M1096.68 105.045L1086.08 114.674M1096.68 105.045H1024.09M1096.68 105.045L1107.94 94.8189M1169.27 105.045L1156.55 114.674M1169.27 105.045L1182.79 94.8189M1169.27 105.045H1241.87M1086.08 114.674H1156.55M1086.08 114.674H1015.6M1086.08 114.674L1076.07 123.756M1156.55 114.674L1144.55 123.756M1156.55 114.674H1227.02M1057.68 140.456H1122.48M1057.68 140.456L1049.21 148.151M1057.68 140.456H992.889M1057.68 140.456L1066.62 132.336M1122.48 140.456L1112.31 148.151M1122.48 140.456L1133.21 132.336M1122.48 140.456H1187.27M1049.21 148.151H1112.31M1049.21 148.151H986.109M1049.21 148.151L1041.17 155.454M1112.31 148.151L1102.66 155.454M1112.31 148.151H1175.41M1026.25 168.996H1084.76M1026.25 168.996L1019.33 175.287M1026.25 168.996H967.745M1026.25 168.996L1033.52 162.393M1084.76 168.996L1076.45 175.287M1084.76 168.996L1093.49 162.393M1084.76 168.996H1143.27M1019.33 175.287H1076.45M1019.33 175.287H962.203M1019.33 175.287L1012.72 181.286M1076.45 175.287L1068.52 181.286M1076.45 175.287H1133.57M1000.38 192.489L1001.12 191.817L1001.86 191.143L1006.41 187.014M1000.38 192.489H1053.72M1000.38 192.489L994.614 197.726M1000.38 192.489H947.048M1053.72 192.489L1046.79 197.726M1053.72 192.489L1060.95 187.014M1053.72 192.489H1107.05M994.614 197.726H1046.79M994.614 197.726H942.433M994.614 197.726L989.09 202.742M1046.79 197.726L1040.17 202.742M1046.79 197.726H1098.97M978.715 212.163H1027.72M978.715 212.163L973.837 216.592M978.715 212.163H929.714M978.715 212.163L983.795 207.551M1027.72 212.163L1024.03 214.952L1021.86 216.592M1027.72 212.163L1033.81 207.551M1027.72 212.163H1076.72M973.837 216.592H1021.86M973.837 216.592H925.812M973.837 216.592L969.727 220.326L969.15 220.848M1021.86 216.592L1016.24 220.848M1021.86 216.592H1069.89M960.305 228.881H1005.62M960.305 228.881L959.245 229.843L956.126 232.675M960.305 228.881H914.986M960.305 228.881L961.374 227.91L963.543 225.941L964.642 224.942M1005.62 228.881L1000.61 232.675M1005.62 228.881L1007.55 227.421L1008.85 226.436L1010.83 224.942M1005.62 228.881H1050.94M956.126 232.675H1000.61M956.126 232.675H911.643M956.126 232.675L953.092 235.431L952.099 236.332M1000.61 232.675L998.776 234.062L997.568 234.976L995.776 236.332M1000.61 232.675H1045.09M944.467 243.262H986.619M944.467 243.262L942.19 245.329L940.848 246.549M944.467 243.262H902.316M944.467 243.262L948.215 239.859M986.619 243.262L983.346 245.737L982.81 246.144L982.275 246.549M986.619 243.262L988.848 241.576L991.116 239.859M986.619 243.262H1028.77M940.848 246.549H982.275M940.848 246.549L939.085 248.15L938.214 248.94L937.781 249.333L937.351 249.724M940.848 246.549H899.421M982.275 246.549H1023.7M982.275 246.549L978.079 249.724M1561.41 17.0891H1469.44M1561.41 17.0891L1531.01 32.4227M1561.41 17.0891H1588.96M1561.41 17.0891L1588.96 3.18817M1476.46 59.9429H1558.99M1476.46 59.9429L1451.89 72.3374M1476.46 59.9429H1393.93M1476.46 59.9429L1502.77 46.6705M1558.99 59.9429L1531.69 72.3374M1558.99 59.9429L1588.22 46.6705M1558.99 59.9429H1588.96M1451.89 72.3374H1531.69M1451.89 72.3374H1372.09M1451.89 72.3374L1428.89 83.938M1531.69 72.3374L1506.14 83.938M1531.69 72.3374H1588.96M1387.05 105.045H1459.65M1387.05 105.045L1367.97 114.674M1387.05 105.045H1314.46M1387.05 105.045L1407.33 94.8189M1459.65 105.045L1438.44 114.674M1459.65 105.045L1482.17 94.8189M1459.65 105.045H1532.24M1367.97 114.674H1438.44M1367.97 114.674H1297.5M1367.97 114.674L1349.96 123.756M1438.44 114.674L1418.44 123.756M1438.44 114.674H1508.91M1316.86 140.456H1381.65M1316.86 140.456L1301.61 148.151M1316.86 140.456H1252.07M1316.86 140.456L1332.96 132.336M1381.65 140.456L1364.71 148.151M1381.65 140.456L1399.54 132.336M1381.65 140.456H1446.45M1301.61 148.151H1364.71M1301.61 148.151H1238.51M1301.61 148.151L1287.13 155.454M1364.71 148.151L1348.62 155.454M1364.71 148.151H1427.81M1260.29 168.996H1318.79M1260.29 168.996L1247.82 175.287M1260.29 168.996H1201.78M1260.29 168.996L1273.38 162.393M1318.79 168.996L1304.94 175.287M1318.79 168.996L1333.34 162.393M1318.79 168.996H1377.3M1247.82 175.287H1304.94M1247.82 175.287H1190.69M1247.82 175.287L1235.93 181.286M1304.94 175.287L1291.73 181.286M1304.94 175.287H1362.06M1213.72 192.489H1267.05M1213.72 192.489L1203.34 197.726M1213.72 192.489H1160.38M1213.72 192.489L1224.57 187.014M1267.05 192.489L1255.52 197.726M1267.05 192.489L1279.11 187.014M1267.05 192.489H1320.39M1203.34 197.726H1255.52M1203.34 197.726H1151.16M1203.34 197.726L1193.39 202.742M1255.52 197.726L1244.47 202.742M1255.52 197.726H1307.7M1174.72 212.163H1223.72M1174.72 212.163L1165.94 216.592M1174.72 212.163H1125.72M1174.72 212.163L1183.86 207.551M1223.72 212.163L1213.96 216.592M1223.72 212.163L1233.88 207.551M1223.72 212.163H1272.72M1165.94 216.592H1213.96M1165.94 216.592H1117.91M1165.94 216.592L1157.5 220.848M1213.96 216.592L1204.59 220.848M1213.96 216.592H1261.99M1141.58 228.881H1186.9M1141.58 228.881L1134.06 232.675M1141.58 228.881H1096.26M1141.58 228.881L1143.5 227.91L1144.47 227.421L1149.39 224.942M1186.9 228.881L1178.54 232.675M1186.9 228.881L1195.57 224.942M1186.9 228.881H1232.22M1134.06 232.675H1178.54M1134.06 232.675H1089.57M1134.06 232.675L1126.81 236.332M1178.54 232.675L1170.49 236.332M1178.54 232.675H1223.02M1113.07 243.262H1155.22M1113.07 243.262L1106.56 246.549M1113.07 243.262H1070.92M1113.07 243.262L1119.82 239.859M1155.22 243.262L1149.77 245.737L1148.88 246.144L1147.98 246.549M1155.22 243.262L1162.72 239.859M1155.22 243.262H1197.37M1106.56 246.549H1147.98M1106.56 246.549L1101.04 249.333L1100.26 249.724M1106.56 246.549H1065.13M1147.98 246.549H1189.41M1147.98 246.549L1140.99 249.724M1576.04 140.456L1554.01 148.151M1576.04 140.456H1511.24M1576.04 140.456L1588.96 135.943M1576.04 140.456H1588.96M1554.01 148.151H1490.91M1554.01 148.151L1533.1 155.454M1554.01 148.151H1588.96M1494.32 168.996H1552.83M1494.32 168.996L1476.31 175.287M1494.32 168.996H1435.81M1494.32 168.996L1513.23 162.393M1552.83 168.996L1533.43 175.287M1552.83 168.996L1573.19 162.393M1552.83 168.996H1588.96M1476.31 175.287H1533.43M1476.31 175.287H1419.19M1476.31 175.287L1459.13 181.286M1533.43 175.287L1514.93 181.286M1533.43 175.287H1588.96M1427.06 192.489H1480.39M1427.06 192.489L1412.06 197.726M1427.06 192.489H1373.72M1427.06 192.489L1442.73 187.014M1480.39 192.489L1464.24 197.726M1480.39 192.489L1497.27 187.014M1480.39 192.489H1533.72M1412.06 197.726H1464.24M1412.06 197.726H1359.88M1412.06 197.726L1397.7 202.742M1464.24 197.726L1448.77 202.742M1464.24 197.726H1516.42M1370.72 212.163H1419.72M1370.72 212.163L1358.04 216.592M1370.72 212.163H1321.72M1370.72 212.163L1383.93 207.551M1419.72 212.163L1406.06 216.592M1419.72 212.163L1433.95 207.551M1419.72 212.163H1468.72M1358.04 216.592H1406.06M1358.04 216.592H1310.01M1358.04 216.592L1345.85 220.848M1406.06 216.592L1392.94 220.848M1406.06 216.592H1454.09M1322.85 228.881H1368.17M1322.85 228.881L1311.99 232.675M1322.85 228.881H1277.54M1322.85 228.881L1334.13 224.942M1368.17 228.881L1356.47 232.675M1368.17 228.881L1380.32 224.942M1368.17 228.881H1413.49M1311.99 232.675H1356.47M1311.99 232.675H1267.51M1311.99 232.675L1301.52 236.332M1356.47 232.675L1345.2 236.332M1356.47 232.675H1400.96M1281.68 243.262H1323.83M1281.68 243.262L1272.27 246.549M1281.68 243.262H1239.53M1281.68 243.262L1291.42 239.859M1323.83 243.262L1313.69 246.549M1323.83 243.262L1334.32 239.859M1323.83 243.262H1365.98M1272.27 246.549H1313.69M1272.27 246.549L1263.17 249.724M1272.27 246.549H1230.84M1313.69 246.549H1355.12M1313.69 246.549L1303.9 249.724M1566.72 212.163L1550.14 216.592M1566.72 212.163H1517.72M1566.72 212.163L1584 207.551M1566.72 212.163H1588.96M1550.14 216.592H1502.11M1550.14 216.592L1534.2 220.848M1550.14 216.592H1588.96M1504.13 228.881H1549.45M1504.13 228.881L1489.92 232.675M1504.13 228.881H1458.81M1504.13 228.881L1518.88 224.942M1549.45 228.881L1534.4 232.675M1549.45 228.881L1565.06 224.942M1549.45 228.881H1588.96M1489.92 232.675H1534.4M1489.92 232.675H1445.44M1489.92 232.675L1476.23 236.332M1534.4 232.675L1519.91 236.332M1534.4 232.675H1578.89M1450.28 243.262H1492.43M1450.28 243.262L1437.98 246.549M1450.28 243.262H1408.13M1450.28 243.262L1463.02 239.859M1492.43 243.262L1479.4 246.549M1492.43 243.262L1505.93 239.859M1492.43 243.262H1534.58M1437.98 246.549H1479.4M1437.98 246.549L1426.09 249.724M1437.98 246.549H1396.55M1479.4 246.549H1520.83M1479.4 246.549L1466.81 249.724M1505.93 239.859L1519.91 236.332M1505.93 239.859H1548.83M1505.93 239.859H1463.02M1534.58 243.262L1520.83 246.549M1534.58 243.262L1548.83 239.859M1534.58 243.262H1576.73M1520.83 246.549H1562.26M1520.83 246.549L1507.54 249.724M1466.81 249.724H1426.09M1466.81 249.724H1507.54M1466.81 249.724L1454.64 252.794M1548.83 239.859L1563.59 236.332M1548.83 239.859H1588.96M1576.73 243.262L1562.26 246.549M1576.73 243.262L1588.96 240.487M1576.73 243.262H1588.96M1562.26 246.549L1548.27 249.724M1562.26 246.549H1588.96M1507.54 249.724H1548.27M1507.54 249.724L1494.69 252.794M1548.27 249.724L1534.75 252.794M1548.27 249.724H1588.96M1519.91 236.332H1563.59M1519.91 236.332H1476.23M1578.89 232.675L1563.59 236.332M1578.89 232.675L1588.96 230.268M1578.89 232.675H1588.96M1563.59 236.332H1588.96M1476.23 236.332H1432.55M1476.23 236.332L1463.02 239.859M1463.02 239.859H1420.12M1565.06 224.942L1581.29 220.848M1565.06 224.942H1518.88M1565.06 224.942H1588.96M1589.1 228.881H1588.96M1581.29 220.848H1534.2M1581.29 220.848L1588.96 218.914M1581.29 220.848H1588.96M1534.2 220.848H1487.12M1534.2 220.848L1518.88 224.942M1518.88 224.942H1472.69M1334.32 239.859L1345.2 236.332M1334.32 239.859H1377.22M1334.32 239.859H1291.42M1365.98 243.262L1355.12 246.549M1365.98 243.262L1377.22 239.859M1365.98 243.262H1408.13M1355.12 246.549H1396.55M1355.12 246.549L1344.63 249.724M1303.9 249.724H1344.63M1303.9 249.724L1294.44 252.794M1303.9 249.724H1263.17M1377.22 239.859L1388.87 236.332M1377.22 239.859H1420.12M1408.13 243.262L1396.55 246.549M1408.13 243.262L1420.12 239.859M1396.55 246.549L1385.36 249.724M1344.63 249.724H1385.36M1344.63 249.724L1334.49 252.794M1420.12 239.859L1432.55 236.332M1426.09 249.724H1385.36M1426.09 249.724L1414.59 252.794M1385.36 249.724L1374.54 252.794M1345.2 236.332H1388.87M1345.2 236.332H1301.52M1400.96 232.675L1388.87 236.332M1400.96 232.675L1413.49 228.881M1400.96 232.675H1445.44M1388.87 236.332H1432.55M1301.52 236.332H1257.84M1301.52 236.332L1291.42 239.859M1432.55 236.332L1445.44 232.675M1291.42 239.859H1248.52M1413.49 228.881L1426.51 224.942M1413.49 228.881H1458.81M1445.44 232.675L1458.81 228.881M1458.81 228.881L1472.69 224.942M1380.32 224.942L1392.94 220.848M1380.32 224.942H1426.51M1380.32 224.942H1334.13M1426.51 224.942L1440.03 220.848M1426.51 224.942H1472.69M1472.69 224.942L1487.12 220.848M1392.94 220.848H1440.03M1392.94 220.848H1345.85M1454.09 216.592L1440.03 220.848M1454.09 216.592L1468.72 212.163M1454.09 216.592H1502.11M1440.03 220.848H1487.12M1345.85 220.848H1298.76M1345.85 220.848L1334.13 224.942M1487.12 220.848L1502.11 216.592M1334.13 224.942H1287.95M1468.72 212.163L1483.96 207.551M1468.72 212.163H1517.72M1502.11 216.592L1517.72 212.163M1517.72 212.163L1533.98 207.551M1433.95 207.551L1448.77 202.742M1433.95 207.551H1483.96M1433.95 207.551H1383.93M1483.96 207.551L1499.85 202.742M1483.96 207.551H1533.98M1533.98 207.551L1550.92 202.742M1533.98 207.551H1584M1584 207.551H1588.96M1584 207.551L1588.96 206.224M1448.77 202.742H1499.85M1448.77 202.742H1397.7M1516.42 197.726L1499.85 202.742M1516.42 197.726L1533.72 192.489M1516.42 197.726H1568.6M1499.85 202.742H1550.92M1397.7 202.742H1346.62M1397.7 202.742L1383.93 207.551M1550.92 202.742L1568.6 197.726M1550.92 202.742H1588.96M1383.93 207.551H1333.91M1533.72 192.489L1551.81 187.014M1533.72 192.489H1587.06M1568.6 197.726L1587.06 192.489M1568.6 197.726H1588.96M1589.23 202.742H1588.96M1587.06 192.489L1588.96 191.948M1587.06 192.489H1588.96M1497.27 187.014L1514.93 181.286M1497.27 187.014H1551.81M1497.27 187.014H1442.73M1551.81 187.014L1570.73 181.286M1551.81 187.014H1588.96M1589.42 191.817L1588.96 191.948M1514.93 181.286H1570.73M1514.93 181.286H1459.13M1570.73 181.286H1588.96M1570.73 181.286L1588.96 175.769M1459.13 181.286H1403.33M1459.13 181.286L1442.73 187.014M1442.73 187.014H1388.19M1573.19 162.393H1513.23M1573.19 162.393L1588.96 157.278M1573.19 162.393H1588.96M1589.4 168.996H1588.96M1513.23 162.393H1453.26M1513.23 162.393L1533.1 155.454M1589.14 157.222L1588.96 157.278M1162.72 239.859L1170.49 236.332M1162.72 239.859H1205.62M1162.72 239.859H1119.82M1197.37 243.262L1189.41 246.549M1197.37 243.262L1205.62 239.859M1197.37 243.262H1239.53M1189.41 246.549H1230.84M1189.41 246.549L1181.72 249.724M1140.99 249.724H1181.72M1140.99 249.724L1138.43 250.887L1134.23 252.794M1140.99 249.724H1100.26M1205.62 239.859L1214.16 236.332M1205.62 239.859H1248.52M1239.53 243.262L1230.84 246.549M1239.53 243.262L1248.52 239.859M1230.84 246.549L1222.45 249.724M1181.72 249.724H1222.45M1181.72 249.724L1174.28 252.794M1248.52 239.859L1257.84 236.332M1263.17 249.724L1254.38 252.794M1263.17 249.724H1222.45M1222.45 249.724L1221.42 250.114L1219.37 250.887L1214.33 252.794M1170.49 236.332H1214.16M1170.49 236.332H1126.81M1223.02 232.675L1214.16 236.332M1223.02 232.675L1232.22 228.881M1223.02 232.675H1267.51M1214.16 236.332H1257.84M1126.81 236.332H1083.13M1126.81 236.332L1119.82 239.859M1257.84 236.332L1267.51 232.675M1119.82 239.859H1076.92M1232.22 228.881L1241.76 224.942M1232.22 228.881H1277.54M1267.51 232.675L1268.74 232.209L1277.54 228.881M1277.54 228.881L1287.95 224.942M1195.57 224.942L1196.68 224.438L1204.59 220.848M1195.57 224.942H1241.76M1195.57 224.942H1149.39M1241.76 224.942L1251.68 220.848M1241.76 224.942H1287.95M1287.95 224.942L1298.76 220.848M1204.59 220.848H1251.68M1204.59 220.848H1157.5M1261.99 216.592L1251.68 220.848M1261.99 216.592L1272.72 212.163M1261.99 216.592H1310.01M1251.68 220.848H1298.76M1157.5 220.848H1110.41M1157.5 220.848L1149.39 224.942M1298.76 220.848L1310.01 216.592M1149.39 224.942H1103.2M1272.72 212.163L1283.9 207.551M1272.72 212.163H1321.72M1310.01 216.592L1321.72 212.163M1321.72 212.163L1333.91 207.551M1233.88 207.551L1244.47 202.742M1233.88 207.551H1283.9M1233.88 207.551H1183.86M1283.9 207.551L1295.54 202.742M1283.9 207.551H1333.91M1333.91 207.551L1346.62 202.742M1244.47 202.742H1295.54M1244.47 202.742H1193.39M1307.7 197.726L1295.54 202.742M1307.7 197.726L1320.39 192.489M1307.7 197.726H1359.88M1295.54 202.742H1346.62M1193.39 202.742H1142.32M1193.39 202.742L1183.86 207.551M1346.62 202.742L1359.88 197.726M1183.86 207.551H1133.84M1320.39 192.489L1333.65 187.014M1320.39 192.489H1373.72M1359.88 197.726L1373.72 192.489M1373.72 192.489L1388.19 187.014M1279.11 187.014L1291.73 181.286M1279.11 187.014H1333.65M1279.11 187.014H1224.57M1333.65 187.014L1347.53 181.286M1333.65 187.014H1388.19M1388.19 187.014L1403.33 181.286M1291.73 181.286H1347.53M1291.73 181.286H1235.93M1362.06 175.287L1347.53 181.286M1362.06 175.287L1377.3 168.996M1362.06 175.287H1419.19M1347.53 181.286H1403.33M1235.93 181.286H1180.12M1235.93 181.286L1224.57 187.014M1403.33 181.286L1419.19 175.287M1224.57 187.014H1170.03M1377.3 168.996L1393.3 162.393M1377.3 168.996H1435.81M1419.19 175.287L1435.81 168.996M1435.81 168.996L1453.26 162.393M1333.34 162.393L1348.62 155.454M1333.34 162.393H1393.3M1333.34 162.393H1273.38M1393.3 162.393L1410.11 155.454M1393.3 162.393H1453.26M1453.26 162.393L1471.6 155.454M1348.62 155.454H1410.11M1348.62 155.454H1287.13M1427.81 148.151L1410.11 155.454M1427.81 148.151L1446.45 140.456M1427.81 148.151H1490.91M1410.11 155.454H1471.6M1287.13 155.454H1225.64M1287.13 155.454L1273.38 162.393M1471.6 155.454L1490.91 148.151M1471.6 155.454H1533.1M1273.38 162.393H1213.41M1446.45 140.456L1466.12 132.336M1446.45 140.456H1511.24M1490.91 148.151L1511.24 140.456M1533.1 155.454H1588.96M1511.24 140.456L1532.7 132.336M1399.54 132.336L1418.44 123.756M1399.54 132.336H1466.12M1399.54 132.336H1332.96M1466.12 132.336L1486.91 123.756M1466.12 132.336H1532.7M1532.7 132.336L1555.38 123.756M1532.7 132.336H1588.96M1418.44 123.756H1486.91M1418.44 123.756H1349.96M1508.91 114.674L1486.91 123.756M1508.91 114.674L1532.24 105.045M1508.91 114.674H1579.39M1486.91 123.756H1555.38M1349.96 123.756H1281.49M1349.96 123.756L1332.96 132.336M1555.38 123.756L1579.39 114.674M1555.38 123.756H1588.96M1332.96 132.336H1266.37M1532.24 105.045L1557.02 94.8189M1532.24 105.045H1588.96M1579.39 114.674H1588.96M1579.39 114.674L1588.96 111.051M1482.17 94.8189L1506.14 83.938M1482.17 94.8189H1557.02M1482.17 94.8189H1407.33M1557.02 94.8189L1583.38 83.938M1557.02 94.8189H1588.96M1506.14 83.938H1583.38M1506.14 83.938H1428.89M1583.38 83.938L1588.96 81.6338M1583.38 83.938H1588.96M1428.89 83.938H1351.65M1428.89 83.938L1407.33 94.8189M1407.33 94.8189H1332.48M1588.22 46.6705H1502.77M1588.22 46.6705H1588.96M1588.22 46.6705L1588.96 46.3335M1502.77 46.6705H1417.32M1502.77 46.6705L1531.01 32.4227M991.116 239.859L992.844 238.551L993.425 238.111L995.776 236.332M991.116 239.859H1034.02M991.116 239.859H948.215M1028.77 243.262L1024.95 245.737L1023.7 246.549M1028.77 243.262L1033.35 240.291L1034.02 239.859M1028.77 243.262H1070.92M1023.7 246.549H1065.13M1023.7 246.549L1018.81 249.724M978.079 249.724H1018.81M978.079 249.724L976.541 250.887L974.022 252.794M978.079 249.724H937.351M1034.02 239.859L1035.36 238.989L1039.45 236.332M1034.02 239.859H1076.92M1070.92 243.262L1065.13 246.549M1070.92 243.262L1076.92 239.859M1065.13 246.549L1060.92 248.94L1059.53 249.724M1018.81 249.724H1059.53M1018.81 249.724L1014.07 252.794M1076.92 239.859L1083.13 236.332M1100.26 249.724L1099.49 250.114L1094.18 252.794M1100.26 249.724H1059.53M1059.53 249.724L1057.48 250.887L1054.12 252.794M995.776 236.332H1039.45M995.776 236.332H952.099M1045.09 232.675L1039.45 236.332M1045.09 232.675L1050.94 228.881M1045.09 232.675H1089.57M1039.45 236.332H1083.13M952.099 236.332H908.421M952.099 236.332L948.215 239.859M1083.13 236.332L1089.57 232.675M948.215 239.859H905.315M1050.94 228.881L1054.71 226.436L1055.48 225.941L1057.01 224.942M1050.94 228.881H1096.26M1089.57 232.675L1096.26 228.881M1096.26 228.881L1103.2 224.942M1010.83 224.942L1016.24 220.848M1010.83 224.942H1057.01M1010.83 224.942H964.642M1057.01 224.942L1063.33 220.848M1057.01 224.942H1103.2M1103.2 224.942L1110.41 220.848M1016.24 220.848H1063.33M1016.24 220.848H969.15M1069.89 216.592L1065.76 219.272L1064.94 219.8L1063.33 220.848M1069.89 216.592L1076.72 212.163M1069.89 216.592H1117.91M1063.33 220.848H1110.41M969.15 220.848H922.062M969.15 220.848L964.642 224.942M1110.41 220.848L1117.91 216.592M964.642 224.942H918.456M1076.72 212.163L1083.83 207.551M1076.72 212.163H1125.72M1117.91 216.592L1125.72 212.163M1125.72 212.163L1133.84 207.551M1033.81 207.551L1036.96 205.172L1037.75 204.569L1040.17 202.742M1033.81 207.551H1083.83M1033.81 207.551H983.795M1083.83 207.551L1091.24 202.742M1083.83 207.551H1133.84M1133.84 207.551L1142.32 202.742M1040.17 202.742H1091.24M1040.17 202.742H989.09M1098.97 197.726L1091.24 202.742M1098.97 197.726L1107.05 192.489M1098.97 197.726H1151.16M1091.24 202.742H1142.32M989.09 202.742H938.014M989.09 202.742L987.745 203.963L983.795 207.551M1142.32 202.742L1151.16 197.726M983.795 207.551H933.779M1107.05 192.489L1115.49 187.014M1107.05 192.489H1160.38M1151.16 197.726L1160.38 192.489M1160.38 192.489L1170.03 187.014M1060.95 187.014L1068.52 181.286M1060.95 187.014H1115.49M1060.95 187.014H1006.41M1115.49 187.014L1124.32 181.286M1115.49 187.014H1170.03M1170.03 187.014L1180.12 181.286M1068.52 181.286H1124.32M1068.52 181.286H1012.72M1133.57 175.287L1124.32 181.286M1133.57 175.287L1143.27 168.996M1133.57 175.287H1190.69M1124.32 181.286H1180.12M1012.72 181.286H956.917M1012.72 181.286L1006.41 187.014M1180.12 181.286L1190.69 175.287M1006.41 187.014H951.871M1143.27 168.996L1153.45 162.393M1143.27 168.996H1201.78M1190.69 175.287L1201.78 168.996M1201.78 168.996L1213.41 162.393M1093.49 162.393L1102.66 155.454M1093.49 162.393H1153.45M1093.49 162.393H1033.52M1153.45 162.393L1164.15 155.454M1153.45 162.393H1213.41M1213.41 162.393L1225.64 155.454M1102.66 155.454H1164.15M1102.66 155.454H1041.17M1175.41 148.151L1164.15 155.454M1175.41 148.151L1187.27 140.456M1175.41 148.151H1238.51M1164.15 155.454H1225.64M1041.17 155.454H979.676M1041.17 155.454L1033.52 162.393M1225.64 155.454L1238.51 148.151M1033.52 162.393H973.562M1187.27 140.456L1199.79 132.336M1187.27 140.456H1252.07M1238.51 148.151L1252.07 140.456M1252.07 140.456L1266.37 132.336M1133.21 132.336L1144.55 123.756M1133.21 132.336H1199.79M1133.21 132.336H1066.62M1199.79 132.336L1213.02 123.756M1199.79 132.336H1266.37M1266.37 132.336L1281.49 123.756M1144.55 123.756H1213.02M1144.55 123.756H1076.07M1227.02 114.674L1213.02 123.756M1227.02 114.674L1241.87 105.045M1227.02 114.674H1297.5M1213.02 123.756H1281.49M1076.07 123.756H1007.6M1076.07 123.756L1066.62 132.336M1281.49 123.756L1297.5 114.674M1066.62 132.336H1000.04M1241.87 105.045L1257.63 94.8189M1241.87 105.045H1314.46M1297.5 114.674L1314.46 105.045M1314.46 105.045L1332.48 94.8189M1182.79 94.8189L1197.17 83.938M1182.79 94.8189H1257.63M1182.79 94.8189H1107.94M1257.63 94.8189L1274.41 83.938M1257.63 94.8189H1332.48M1332.48 94.8189L1351.65 83.938M1197.17 83.938H1274.41M1197.17 83.938H1119.92M1292.29 72.3374L1274.41 83.938M1292.29 72.3374L1311.4 59.9429M1292.29 72.3374H1372.09M1274.41 83.938H1351.65M1119.92 83.938H1042.68M1119.92 83.938L1107.94 94.8189M1351.65 83.938L1372.09 72.3374M1107.94 94.8189H1033.1M1311.4 59.9429L1331.87 46.6705M1311.4 59.9429H1393.93M1372.09 72.3374L1393.93 59.9429M1393.93 59.9429L1417.32 46.6705M1246.42 46.6705L1265.24 32.4227M1246.42 46.6705H1331.87M1246.42 46.6705H1160.97M1331.87 46.6705L1353.83 32.4227M1331.87 46.6705H1417.32M1417.32 46.6705L1442.42 32.4227M1265.24 32.4227H1353.83M1265.24 32.4227H1176.66M1377.47 17.0891L1353.83 32.4227M1377.47 17.0891L1402.99 0.539642M1377.47 17.0891H1469.44M1353.83 32.4227H1442.42M1176.66 32.4227H1088.07M1176.66 32.4227L1160.97 46.6705M1442.42 32.4227L1469.44 17.0891M1442.42 32.4227H1531.01M1160.97 46.6705H1075.51M1402.99 0.539642L1430.61 -17.3755M1402.99 0.539642H1498.6M1469.44 17.0891L1498.6 0.539642M1531.01 32.4227H1588.96M1498.6 0.539642L1530.17 -17.3755M1498.6 0.539642H1588.96M1331.05 -17.3755L1356.77 -36.833M1331.05 -17.3755H1430.61M1331.05 -17.3755H1231.5M1430.61 -17.3755L1460.61 -36.833M1430.61 -17.3755H1530.17M1530.17 -17.3755L1564.45 -36.833M1530.17 -17.3755H1588.96M1356.77 -36.833H1460.61M1356.77 -36.833H1252.92M1493.31 -58.041L1460.61 -36.833M1493.31 -58.041L1529.09 -81.2468M1493.31 -58.041H1588.96M1460.61 -36.833H1564.45M1252.92 -36.833H1149.08M1252.92 -36.833L1231.5 -17.3755M1564.45 -36.833H1588.96M1564.45 -36.833L1588.96 -50.7435M1231.5 -17.3755H1131.94M1529.09 -81.2468L1568.4 -106.747M1529.09 -81.2468H1588.96M1449.16 -106.747L1486.36 -134.899M1449.16 -106.747H1568.4M1449.16 -106.747H1329.92M1568.4 -106.747L1588.96 -120.084M1568.4 -106.747H1588.96M1486.36 -134.899H1360.92M1486.36 -134.899L1588.96 -134.899M1360.92 -134.899H1235.48M1360.92 -134.899L1329.92 -106.747M1329.92 -106.747H1210.68M819.513 239.859L819.704 239.425L819.896 238.989L820.089 238.551L820.282 238.111L820.87 236.78L821.066 236.332M819.513 239.859H862.414M819.513 239.859H776.612M860.165 243.262L858.529 245.737L857.994 246.549M860.165 243.262L861.562 241.149L862.414 239.859M860.165 243.262H902.316M857.994 246.549H899.421M857.994 246.549L856.413 248.94L855.895 249.724M815.167 249.724L814.996 250.114L814.317 251.655L813.814 252.794M815.167 249.724H855.895M815.167 249.724H774.439M862.414 239.859L862.7 239.425L862.989 238.989L863.277 238.551L863.569 238.111L864.744 236.332M862.414 239.859H905.315M902.316 243.262L900.135 245.737L899.421 246.549M902.316 243.262L905.315 239.859M899.421 246.549L898.009 248.15L896.967 249.333L896.623 249.724M855.895 249.724L855.638 250.114L855.127 250.887L854.619 251.655L854.368 252.037L853.866 252.794M855.895 249.724H896.623M905.315 239.859L907.635 237.226L908.421 236.332M937.351 249.724L934.805 252.037L933.97 252.794M937.351 249.724H896.623M896.623 249.724L894.252 252.416L893.918 252.794M821.066 236.332H864.744M821.066 236.332H777.389M867.16 232.675L864.744 236.332M867.16 232.675L869.667 228.881M867.16 232.675H911.643M864.744 236.332H908.421M777.389 236.332H733.711M777.389 236.332L776.612 239.859M908.421 236.332L911.643 232.675M776.612 239.859H733.711M869.667 228.881L870.309 227.91L871.283 226.436L872.27 224.942M869.667 228.881H914.986M911.643 232.675L912.054 232.209L914.986 228.881M914.986 228.881L915.412 228.397L915.841 227.91L916.272 227.421L918.456 224.942M826.084 224.942L827.887 220.848M826.084 224.942H872.27M826.084 224.942H779.898M872.27 224.942L874.975 220.848M872.27 224.942H918.456M918.456 224.942L921.147 221.887L921.604 221.369L922.062 220.848M827.887 220.848H874.975M827.887 220.848H780.799M877.787 216.592L878.146 216.048L878.508 215.502L878.87 214.952L880.714 212.163M877.787 216.592L876.367 218.742L876.016 219.272L875.668 219.8L874.975 220.848M877.787 216.592H925.812M874.975 220.848H922.062M780.799 220.848H733.711M780.799 220.848L779.898 224.942M922.062 220.848L925.812 216.592M779.898 224.942H733.711M880.714 212.163L883.374 208.138L883.761 207.551M880.714 212.163H929.714M925.812 216.592L926.773 215.502L929.714 212.163M929.714 212.163L931.219 210.456L933.779 207.551M833.745 207.551L834.793 205.172L835.058 204.569L835.863 202.742M833.745 207.551H883.761M833.745 207.551H783.728M883.761 207.551L886.938 202.742M883.761 207.551H933.779M933.779 207.551L938.014 202.742M835.863 202.742H886.938M835.863 202.742H784.787M890.252 197.726L886.938 202.742M890.252 197.726L893.714 192.489M890.252 197.726H942.433M886.938 202.742H938.014M784.787 202.742H733.711M784.787 202.742L784.518 203.963L783.989 206.367L783.728 207.551M938.014 202.742L942.433 197.726M783.728 207.551H733.711M893.714 192.489L896.411 188.405L897.331 187.014M893.714 192.489H947.048M942.433 197.726L947.048 192.489M947.048 192.489L949.432 189.782L951.871 187.014M842.791 187.014L845.314 181.286M842.791 187.014H897.331M842.791 187.014H788.251M897.331 187.014L901.116 181.286M897.331 187.014H951.871M951.871 187.014L956.917 181.286M845.314 181.286H901.116M845.314 181.286H789.513M905.08 175.287L904.071 176.813L901.116 181.286M905.08 175.287L909.236 168.996M905.08 175.287H962.203M901.116 181.286H956.917M789.513 181.286H733.711M789.513 181.286L788.251 187.014M956.917 181.286L962.203 175.287M788.251 187.014H733.711M909.236 168.996L913.599 162.393M909.236 168.996H967.745M962.203 175.287L967.745 168.996M967.745 168.996L973.562 162.393M853.637 162.393L856.694 155.454M853.637 162.393H913.599M853.637 162.393H793.674M913.599 162.393L918.184 155.454M913.599 162.393H973.562M973.562 162.393L979.676 155.454M856.694 155.454H918.184M856.694 155.454H795.202M923.01 148.151L918.184 155.454M923.01 148.151L928.095 140.456M923.01 148.151H986.109M918.184 155.454H979.676M795.202 155.454H733.711M795.202 155.454L793.86 161.545L793.674 162.393M979.676 155.454L986.109 148.151M793.674 162.393H733.711M928.095 140.456L933.46 132.336M928.095 140.456H992.889M986.109 148.151L991.16 142.418L992.889 140.456M992.889 140.456L1000.04 132.336M866.876 132.336L870.657 123.756M866.876 132.336H933.46M866.876 132.336H800.294M933.46 132.336L939.129 123.756M933.46 132.336H1000.04M1000.04 132.336L1007.6 123.756M870.657 123.756H939.129M870.657 123.756H802.184M945.13 114.674L939.129 123.756M945.13 114.674L951.492 105.045M945.13 114.674H1015.6M939.129 123.756H1007.6M802.184 123.756H733.711M802.184 123.756L800.294 132.336M1007.6 123.756L1015.6 114.674M800.294 132.336H733.711M951.492 105.045L958.249 94.8189M951.492 105.045H1024.09M1015.6 114.674L1024.09 105.045M1024.09 105.045L1033.1 94.8189M883.403 94.8189L888.196 83.938M883.403 94.8189H958.249M883.403 94.8189H808.557M958.249 94.8189L965.439 83.938M958.249 94.8189H1033.1M1033.1 94.8189L1042.68 83.938M888.196 83.938H965.439M888.196 83.938H810.954M973.104 72.3374L965.439 83.938M973.104 72.3374L981.294 59.9429M973.104 72.3374H1052.9M965.439 83.938H1042.68M810.954 83.938H733.711M810.954 83.938L808.557 94.8189M1042.68 83.938L1052.9 72.3374M808.557 94.8189H733.711M981.294 59.9429L990.064 46.6705M981.294 59.9429H1063.82M1052.9 72.3374L1063.82 59.9429M1063.82 59.9429L1075.51 46.6705M904.613 46.6705L910.889 32.4227M904.613 46.6705H990.064M904.613 46.6705H819.162M990.064 46.6705L999.478 32.4227M990.064 46.6705H1075.51M1075.51 46.6705L1088.07 32.4227M910.889 32.4227H999.478M910.889 32.4227H822.3M1009.61 17.0891L999.478 32.4227M1009.61 17.0891L1020.54 0.539642M1009.61 17.0891H1101.58M999.478 32.4227H1088.07M822.3 32.4227H733.711M822.3 32.4227L819.162 46.6705M1088.07 32.4227L1101.58 17.0891M819.162 46.6705H733.711M1020.54 0.539642L1032.38 -17.3755M1020.54 0.539642H1116.16M1101.58 17.0891L1116.16 0.539642M1116.16 0.539642L1131.94 -17.3755M932.825 -17.3755L941.396 -36.833M932.825 -17.3755H1032.38M932.825 -17.3755H833.269M1032.38 -17.3755L1045.24 -36.833M1032.38 -17.3755H1131.94M1131.94 -17.3755L1149.08 -36.833M941.396 -36.833H1045.24M941.396 -36.833H837.554M1059.25 -58.041L1045.24 -36.833M1059.25 -58.041L1074.59 -81.2468M1059.25 -58.041H1167.77M1045.24 -36.833H1149.08M837.554 -36.833H733.711M837.554 -36.833L833.269 -17.3755M1149.08 -36.833L1167.77 -58.041M833.269 -17.3755H733.711M1074.59 -81.2468L1091.44 -106.747M1074.59 -81.2468H1188.21M1167.77 -58.041L1188.21 -81.2468M1188.21 -81.2468L1210.68 -106.747M972.194 -106.747L984.595 -134.899M972.194 -106.747H1091.44M972.194 -106.747H852.953M1091.44 -106.747L1110.04 -134.899M1091.44 -106.747H1210.68M1210.68 -106.747L1235.48 -134.899M1110.04 -134.899H984.595M1110.04 -134.899H1235.48M984.595 -134.899H859.153M859.153 -134.899H733.711M859.153 -134.899L852.953 -106.747M852.953 -106.747H733.711M647.91 239.859L647.719 239.425L647.527 238.989L647.334 238.551L647.14 238.111L646.75 237.226L646.553 236.78L646.356 236.332M647.91 239.859H690.811M647.91 239.859H605.009M691.56 243.262L692.284 246.549M691.56 243.262L690.811 239.859M691.56 243.262H733.711M692.284 246.549L692.372 246.952L692.462 247.353L692.549 247.752L692.984 249.724M692.284 246.549H733.711M652.256 249.724L652.427 250.114L653.106 251.655L653.608 252.794M652.256 249.724H692.984M652.256 249.724H611.528M690.811 239.859L690.715 239.425L690.619 238.989L690.522 238.551L690.034 236.332M690.811 239.859H733.711M733.711 243.262V246.549M733.711 243.262V239.859M733.711 246.549V249.724M692.984 249.724H733.711M692.984 249.724L693.239 250.887L693.325 251.272L693.66 252.794M733.711 239.859V236.332M774.439 249.724L774.183 250.887L774.098 251.272L774.014 251.655L773.93 252.037L773.847 252.416L773.763 252.794M774.439 249.724H733.711M733.711 249.724V252.794M646.356 236.332H690.034M646.356 236.332H602.679M689.229 232.675L689.125 232.209L689.023 231.74L688.393 228.881M689.229 232.675L690.034 236.332M689.229 232.675H733.711M690.034 236.332H733.711M602.679 236.332H559.001M602.679 236.332L603.269 237.226L603.563 237.669L603.854 238.111L604.145 238.551L604.434 238.989L604.723 239.425L605.009 239.859M733.711 236.332V232.675M605.009 239.859H562.108M688.393 228.881L687.525 224.942M688.393 228.881H733.711M733.711 232.675V228.881M733.711 228.881V224.942M641.339 224.942L639.536 220.848M641.339 224.942H687.525M641.339 224.942H595.153M687.525 224.942L686.624 220.848M687.525 224.942H733.711M733.711 224.942V220.848M639.536 220.848H686.624M639.536 220.848H592.448M685.686 216.592L686.624 220.848M685.686 216.592L684.711 212.163M685.686 216.592H733.711M686.624 220.848H733.711M592.448 220.848H545.36M592.448 220.848L595.153 224.942M733.711 220.848V216.592M595.153 224.942H548.966M684.711 212.163L684.335 210.456L683.953 208.722L683.694 207.551M684.711 212.163H733.711M733.711 216.592V212.163M733.711 212.163V207.551M633.678 207.551L632.63 205.172L632.365 204.569L631.56 202.742M633.678 207.551H683.694M633.678 207.551H583.661M683.694 207.551L683.434 206.367L682.905 203.963L682.636 202.742M683.694 207.551H733.711M733.711 207.551V202.742M631.56 202.742H682.636M631.56 202.742H580.484M681.531 197.726L681.671 198.365L682.636 202.742M681.531 197.726L680.378 192.489M681.531 197.726H733.711M682.636 202.742H733.711M580.484 202.742H529.409M580.484 202.742L583.661 207.551M733.711 202.742V197.726M583.661 207.551H533.644M680.378 192.489L679.171 187.014M680.378 192.489H733.711M733.711 197.726V192.489M733.711 192.489V187.014M624.631 187.014L622.108 181.286M624.631 187.014H679.171M624.631 187.014H570.091M679.171 187.014L677.91 181.286M679.171 187.014H733.711M733.711 187.014V181.286M622.108 181.286H677.91M622.108 181.286H566.307M676.589 175.287L677.91 181.286M676.589 175.287L675.203 168.996M676.589 175.287H733.711M677.91 181.286H733.711M566.307 181.286H510.505M566.307 181.286L570.091 187.014M733.711 181.286V175.287M570.091 187.014H515.551M675.203 168.996L673.748 162.393M675.203 168.996H733.711M733.711 175.287V168.996M733.711 168.996V162.393M613.786 162.393L610.729 155.454M613.786 162.393H673.748M613.786 162.393H553.824M673.748 162.393L672.221 155.454M673.748 162.393H733.711M733.711 162.393V155.454M610.729 155.454H672.221M610.729 155.454H549.238M670.612 148.151L672.221 155.454M670.612 148.151L668.917 140.456M670.612 148.151H733.711M672.221 155.454H733.711M549.238 155.454H487.747M549.238 155.454L553.824 162.393M733.711 155.454V148.151M553.824 162.393H493.861M668.917 140.456L667.128 132.336M668.917 140.456H733.711M733.711 148.151V140.456M733.711 140.456V132.336M600.546 132.336L596.766 123.756M600.546 132.336H667.128M600.546 132.336H533.963M667.128 132.336L665.239 123.756M667.128 132.336H733.711M733.711 132.336V123.756M596.766 123.756H665.239M596.766 123.756H528.293M663.239 114.674L665.239 123.756M663.239 114.674L661.117 105.045M663.239 114.674H733.711M665.239 123.756H733.711M528.293 123.756H459.821M528.293 123.756L533.963 132.336M733.711 123.756V114.674M533.963 132.336H467.38M661.117 105.045L658.865 94.8189M661.117 105.045H733.711M733.711 114.674V105.045M733.711 105.045V94.8189M584.019 94.8189L579.226 83.938M584.019 94.8189H658.865M584.019 94.8189H509.173M658.865 94.8189L656.469 83.938M658.865 94.8189H733.711M733.711 94.8189V83.938M579.226 83.938H656.469M579.226 83.938H501.984M653.914 72.3374L656.469 83.938M653.914 72.3374L651.184 59.9429M653.914 72.3374H733.711M656.469 83.938H733.711M501.984 83.938H424.741M501.984 83.938L509.173 94.8189M733.711 83.938V72.3374M509.173 94.8189H434.327M651.184 59.9429L648.26 46.6705M651.184 59.9429H733.711M733.711 72.3374V59.9429M733.711 59.9429V46.6705M562.81 46.6705L556.534 32.4227M562.81 46.6705H648.26M562.81 46.6705H477.359M648.26 46.6705L645.122 32.4227M648.26 46.6705H733.711M733.711 46.6705V32.4227M556.534 32.4227H645.122M556.534 32.4227H467.945M641.745 17.0891L645.122 32.4227M641.745 17.0891L638.101 0.539642M641.745 17.0891H733.711M645.122 32.4227H733.711M467.945 32.4227H379.356M467.945 32.4227L477.359 46.6705M733.711 32.4227V17.0891M477.359 46.6705H391.908M638.101 0.539642L634.154 -17.3755M638.101 0.539642H733.711M733.711 17.0891V0.539642M733.711 0.539642V-17.3755M534.597 -17.3755L526.026 -36.833M534.597 -17.3755H634.154M534.597 -17.3755H435.04M634.154 -17.3755L629.869 -36.833M634.154 -17.3755H733.711M733.711 -17.3755V-36.833M526.026 -36.833H629.869M526.026 -36.833H422.184M625.198 -58.041L629.869 -36.833M625.198 -58.041L620.087 -81.2468M625.198 -58.041H733.711M629.869 -36.833H733.711M422.184 -36.833H318.341M422.184 -36.833L435.04 -17.3755M733.711 -36.833V-58.041M435.04 -17.3755H335.483M620.087 -81.2468L614.47 -106.747M620.087 -81.2468H733.711M733.711 -58.041V-81.2468M733.711 -81.2468V-106.747M495.229 -106.747L482.828 -134.899M495.229 -106.747H614.47M495.229 -106.747H375.988M614.47 -106.747L608.269 -134.899M614.47 -106.747H733.711M733.711 -106.747V-134.899M608.269 -134.899H482.828M608.269 -134.899H733.711M482.828 -134.899H357.386M357.386 -134.899H231.944M357.386 -134.899L375.988 -106.747M375.988 -106.747H256.746M476.307 239.859L473.998 238.111L471.646 236.332M476.307 239.859H519.207M476.307 239.859H433.406M522.955 243.262L526.575 246.549M522.955 243.262L519.207 239.859M522.955 243.262H565.107M526.575 246.549H568.002M526.575 246.549L529.208 248.94L530.072 249.724M489.344 249.724H530.072M489.344 249.724L490.882 250.887L493.401 252.794M489.344 249.724H448.616M519.207 239.859L515.324 236.332M519.207 239.859H562.108M565.107 243.262L568.002 246.549M565.107 243.262L562.108 239.859M568.002 246.549L569.413 248.15L570.456 249.333L570.799 249.724M530.072 249.724H570.799M530.072 249.724L532.618 252.037L533.453 252.794M562.108 239.859L559.788 237.226L559.001 236.332M611.528 249.724L611.785 250.114L612.296 250.887L613.055 252.037L613.557 252.794M611.528 249.724H570.799M570.799 249.724L571.142 250.114L571.825 250.887L573.504 252.794M471.646 236.332H515.324M471.646 236.332H427.968M511.296 232.675L511.809 233.14L512.317 233.602L514.331 235.431L515.324 236.332M511.296 232.675L508.177 229.843L507.118 228.881M511.296 232.675H555.78M515.324 236.332H559.001M427.968 236.332H384.291M427.968 236.332L432.064 238.989L433.406 239.859M559.001 236.332L555.78 232.675M433.406 239.859H390.505M507.118 228.881L506.585 228.397L506.049 227.91L504.427 226.436L503.88 225.941L502.78 224.942M507.118 228.881H552.437M555.78 232.675L555.368 232.209L552.437 228.881M552.437 228.881L552.011 228.397L551.581 227.91L551.151 227.421L548.966 224.942M456.594 224.942L451.185 220.848M456.594 224.942H502.78M456.594 224.942H410.408M502.78 224.942L498.272 220.848M502.78 224.942H548.966M548.966 224.942L545.36 220.848M451.185 220.848H498.272M451.185 220.848H404.097M493.585 216.592L498.272 220.848M493.585 216.592L488.708 212.163M493.585 216.592H541.61M498.272 220.848H545.36M404.097 220.848H357.009M404.097 220.848L410.408 224.942M545.36 220.848L541.61 216.592M410.408 224.942H364.221M488.708 212.163L483.628 207.551M488.708 212.163H537.708M541.61 216.592L540.649 215.502L537.708 212.163M537.708 212.163L536.204 210.456L534.676 208.722L533.644 207.551M433.611 207.551L430.467 205.172L427.257 202.742M433.611 207.551H483.628M433.611 207.551H383.594M483.628 207.551L478.333 202.742M483.628 207.551H533.644M533.644 207.551L529.409 202.742M427.257 202.742H478.333M427.257 202.742H376.182M472.809 197.726L478.333 202.742M472.809 197.726L467.041 192.489M472.809 197.726H524.989M478.333 202.742H529.409M376.182 202.742H325.105M376.182 202.742L383.594 207.551M529.409 202.742L524.989 197.726M383.594 207.551H333.578M467.041 192.489L465.558 191.143L461.012 187.014M467.041 192.489H520.374M524.989 197.726L520.374 192.489M520.374 192.489L519.784 191.817L517.99 189.782L515.551 187.014M406.472 187.014L398.902 181.286M406.472 187.014H461.012M406.472 187.014H351.932M461.012 187.014L454.704 181.286M461.012 187.014H515.551M515.551 187.014L510.505 181.286M398.902 181.286H454.704M398.902 181.286H343.1M448.097 175.287L452.263 179.069L454.704 181.286M448.097 175.287L441.169 168.996M448.097 175.287H505.22M454.704 181.286H510.505M343.1 181.286H287.299M343.1 181.286L351.932 187.014M510.505 181.286L505.22 175.287M351.932 187.014H297.392M441.169 168.996L433.898 162.393M441.169 168.996H499.678M505.22 175.287L499.678 168.996M499.678 168.996L493.861 162.393M373.935 162.393L364.764 155.454M373.935 162.393H433.898M373.935 162.393H313.973M433.898 162.393L426.256 155.454M433.898 162.393H493.861M493.861 162.393L487.747 155.454M364.764 155.454H426.256M364.764 155.454H303.273M418.214 148.151L426.256 155.454M418.214 148.151L409.74 140.456M418.214 148.151H481.314M426.256 155.454H487.747M303.273 155.454H241.783M303.273 155.454L313.973 162.393M487.747 155.454L481.314 148.151M313.973 162.393H254.01M409.74 140.456L400.798 132.336M409.74 140.456H474.534M481.314 148.151L474.534 140.456M474.534 140.456L467.38 132.336M334.215 132.336L322.876 123.756M334.215 132.336H400.798M334.215 132.336H267.632M400.798 132.336L391.348 123.756M400.798 132.336H467.38M467.38 132.336L459.821 123.756M322.876 123.756H391.348M322.876 123.756H254.403M381.346 114.674L391.348 123.756M381.346 114.674L370.743 105.045M381.346 114.674H451.82M391.348 123.756H459.821M254.403 123.756H185.93M254.403 123.756L267.632 132.336M459.821 123.756L451.82 114.674M267.632 132.336H201.05M370.743 105.045L359.481 94.8189M370.743 105.045H443.337M451.82 114.674L443.337 105.045M443.337 105.045L434.327 94.8189M284.635 94.8189L270.256 83.938M284.635 94.8189H359.481M284.635 94.8189H209.789M359.481 94.8189L347.499 83.938M359.481 94.8189H434.327M434.327 94.8189L424.741 83.938M270.256 83.938H347.499M270.256 83.938H193.014M334.723 72.3374L347.499 83.938M334.723 72.3374L321.073 59.9429M334.723 72.3374H414.521M347.499 83.938H424.741M193.014 83.938H115.771M193.014 83.938L209.789 94.8189M424.741 83.938L414.521 72.3374M209.789 94.8189H134.943M321.073 59.9429L306.457 46.6705M321.073 59.9429H403.602M414.521 72.3374L403.602 59.9429M403.602 59.9429L391.908 46.6705M221.006 46.6705L202.178 32.4227M221.006 46.6705H306.457M221.006 46.6705H135.555M306.457 46.6705L290.767 32.4227M306.457 46.6705H391.908M391.908 46.6705L379.356 32.4227M202.178 32.4227H290.767M202.178 32.4227H113.59M273.88 17.0891L290.767 32.4227M273.88 17.0891L255.656 0.539642M273.88 17.0891H365.847M290.767 32.4227H379.356M113.59 32.4227H25.0007M113.59 32.4227L135.555 46.6705M379.356 32.4227L365.847 17.0891M135.555 46.6705H50.1041M255.656 0.539642L235.926 -17.3755M255.656 0.539642H351.266M365.847 17.0891L351.266 0.539642M351.266 0.539642L335.483 -17.3755M136.369 -17.3755L110.656 -36.833M136.369 -17.3755H235.926M136.369 -17.3755H36.8121M235.926 -17.3755L214.498 -36.833M235.926 -17.3755H335.483M335.483 -17.3755L318.341 -36.833M110.656 -36.833H214.498M110.656 -36.833H6.81326M191.143 -58.041L214.498 -36.833M191.143 -58.041L165.587 -81.2468M191.143 -58.041H299.656M214.498 -36.833H318.341M6.81326 -36.833H-97.0294M6.81326 -36.833L36.8121 -17.3755M318.341 -36.833L299.656 -58.041M36.8121 -17.3755H-62.7445M165.587 -81.2468L137.505 -106.747M165.587 -81.2468H279.212M299.656 -58.041L279.212 -81.2468M279.212 -81.2468L256.746 -106.747M18.2638 -106.747L-18.9396 -134.899M18.2638 -106.747H137.505M18.2638 -106.747H-100.978M137.505 -106.747L106.503 -134.899M137.505 -106.747H256.746M256.746 -106.747L231.944 -134.899M106.503 -134.899H-18.9396M106.503 -134.899H231.944M-18.9396 -134.899L-121.539 -134.899M-100.978 -106.747L-121.539 -120.084M-100.978 -106.747H-121.539M304.703 239.859L296.936 236.332M304.703 239.859H347.604M304.703 239.859H261.803M354.351 243.262L360.866 246.549M354.351 243.262L347.604 239.859M354.351 243.262H396.502M360.866 246.549H402.293M360.866 246.549L367.161 249.724M326.432 249.724H367.161M326.432 249.724L328.995 250.887L333.195 252.794M326.432 249.724H285.704M347.604 239.859L340.613 236.332M347.604 239.859H390.505M396.502 243.262L402.293 246.549M396.502 243.262L390.505 239.859M402.293 246.549L406.508 248.94L407.888 249.724M367.161 249.724L367.932 250.114L373.246 252.794M367.161 249.724H407.888M390.505 239.859L384.291 236.332M448.616 249.724L453.349 252.794M448.616 249.724H407.888M407.888 249.724L409.938 250.887L413.298 252.794M296.936 236.332H340.613M296.936 236.332H253.258M333.365 232.675L340.613 236.332M333.365 232.675L325.844 228.881M333.365 232.675H377.848M340.613 236.332H384.291M253.258 236.332H209.581M253.258 236.332L261.803 239.859M384.291 236.332L377.848 232.675M261.803 239.859H218.902M325.844 228.881L323.919 227.91L318.035 224.942M325.844 228.881H371.163M377.848 232.675L371.163 228.881M371.163 228.881L364.221 224.942M271.848 224.942L270.741 224.438L262.833 220.848M271.848 224.942H318.035M271.848 224.942H225.662M318.035 224.942L309.921 220.848M318.035 224.942H364.221M364.221 224.942L363.335 224.438L357.009 220.848M262.833 220.848H309.921M262.833 220.848H215.746M301.484 216.592L309.921 220.848M301.484 216.592L292.705 212.163M301.484 216.592H349.51M309.921 220.848H357.009M215.746 220.848H168.658M215.746 220.848L225.662 224.942M357.009 220.848L349.51 216.592M225.662 224.942H179.476M292.705 212.163L283.561 207.551M292.705 212.163H341.705M349.51 216.592L341.705 212.163M341.705 212.163L333.578 207.551M233.545 207.551L222.955 202.742M233.545 207.551H283.561M233.545 207.551H183.528M283.561 207.551L274.03 202.742M283.561 207.551H333.578M333.578 207.551L325.105 202.742M222.955 202.742H274.03M222.955 202.742H171.878M264.087 197.726L274.03 202.742M264.087 197.726L253.704 192.489M264.087 197.726H316.267M274.03 202.742H325.105M171.878 202.742H120.803M171.878 202.742L183.528 207.551M325.105 202.742L316.267 197.726M183.528 207.551H133.511M253.704 192.489L242.852 187.014M253.704 192.489H307.038M316.267 197.726L307.038 192.489M307.038 192.489L297.392 187.014M188.312 187.014L175.696 181.286M188.312 187.014H242.852M188.312 187.014H133.772M242.852 187.014L231.497 181.286M242.852 187.014H297.392M297.392 187.014L287.299 181.286M175.696 181.286H231.497M175.696 181.286H119.894M219.605 175.287L231.497 181.286M219.605 175.287L207.136 168.996M219.605 175.287H276.728M231.497 181.286H287.299M119.894 181.286H64.0928M119.894 181.286L133.772 187.014M287.299 181.286L276.728 175.287M133.772 187.014H79.2316M207.136 168.996L194.047 162.393M207.136 168.996H265.644M276.728 175.287L265.644 168.996M265.644 168.996L254.01 162.393M134.084 162.393L118.8 155.454M134.084 162.393H194.047M134.084 162.393H74.1224M194.047 162.393L180.291 155.454M194.047 162.393H254.01M254.01 162.393L241.783 155.454M118.8 155.454H180.291M118.8 155.454H57.3087M165.815 148.151L180.291 155.454M165.815 148.151L150.562 140.456M165.815 148.151H228.915M180.291 155.454H241.783M57.3087 155.454H-4.18207M57.3087 155.454L74.1224 162.393M241.783 155.454L228.915 148.151M74.1224 162.393H14.1595M150.562 140.456L134.467 132.336M150.562 140.456H215.356M228.915 148.151L215.356 140.456M215.356 140.456L201.05 132.336M67.8835 132.336L48.9851 123.756M67.8835 132.336H134.467M67.8835 132.336H1.30134M134.467 132.336L117.458 123.756M134.467 132.336H201.05M201.05 132.336L185.93 123.756M48.9851 123.756H117.458M48.9851 123.756H-19.4875M99.4547 114.674L117.458 123.756M99.4547 114.674L80.3683 105.045M99.4547 114.674H169.927M117.458 123.756H185.93M-19.4875 123.756H-87.9601M-19.4875 123.756L1.30134 132.336M185.93 123.756L169.927 114.674M1.30134 132.336H-65.2817M80.3683 105.045L60.0971 94.8189M80.3683 105.045H152.962M169.927 114.674L152.962 105.045M152.962 105.045L134.943 94.8189M-14.7489 94.8189L-38.7137 83.938M-14.7489 94.8189H60.0971M-14.7489 94.8189H-89.5949M60.0971 94.8189L38.5288 83.938M60.0971 94.8189H134.943M134.943 94.8189L115.771 83.938M-38.7137 83.938H38.5288M-38.7137 83.938H-115.956M15.5323 72.3374L38.5288 83.938M15.5323 72.3374L-9.03651 59.9429M15.5323 72.3374H95.3299M38.5288 83.938H115.771M-115.956 83.938L-89.5949 94.8189M-115.956 83.938H-121.539M-115.956 83.938L-121.539 81.6337M115.771 83.938L95.3299 72.3374M-89.5949 94.8189H-121.539M-9.03651 59.9429L-35.3462 46.6705M-9.03651 59.9429H73.4907M95.3299 72.3374L73.4907 59.9429M73.4907 59.9429L50.1041 46.6705M-120.797 46.6705H-35.3462M-120.797 46.6705H-121.539M-120.797 46.6705L-121.539 46.3335M-35.3462 46.6705L-63.589 32.4227M-35.3462 46.6705H50.1041M50.1041 46.6705L25.0007 32.4227M-93.9843 17.0891L-63.589 32.4227M-93.9843 17.0891H-2.01812M-93.9843 17.0891H-121.539M-93.9843 17.0891L-121.539 3.18819M-63.589 32.4227H25.0007M-63.589 32.4227H-121.539M25.0007 32.4227L-2.01812 17.0891M-2.01812 17.0891L-31.1777 0.539642M-31.1777 0.539642L-62.7445 -17.3755M-31.1777 0.539642H-121.539M-62.7445 -17.3755L-97.0294 -36.833M-62.7445 -17.3755H-121.539M-97.0294 -36.833H-121.539M-97.0294 -36.833L-121.539 -50.7435M133.1 239.859L122.226 236.332M133.1 239.859H176.001M133.1 239.859H90.1993M185.746 243.262L195.156 246.549M185.746 243.262L176.001 239.859M185.746 243.262H227.897M195.156 246.549H236.583M195.156 246.549L204.249 249.724M163.521 249.724H204.249M163.521 249.724L172.988 252.794M163.521 249.724H122.793M176.001 239.859L165.903 236.332M176.001 239.859H218.902M227.897 243.262L236.583 246.549M227.897 243.262L218.902 239.859M236.583 246.549L244.977 249.724M204.249 249.724L205.363 250.114L213.039 252.794M204.249 249.724H244.977M218.902 239.859L209.581 236.332M285.704 249.724L293.142 252.794M285.704 249.724H244.977M244.977 249.724L246.005 250.114L253.091 252.794M122.226 236.332H165.903M122.226 236.332H78.5483M155.433 232.675L165.903 236.332M155.433 232.675L144.569 228.881M155.433 232.675H199.916M165.903 236.332H209.581M78.5483 236.332H34.8708M78.5483 236.332L90.1993 239.859M209.581 236.332L199.916 232.675M90.1993 239.859H47.2987M144.569 228.881L133.29 224.942M144.569 228.881H189.888M199.916 232.675L198.682 232.209L189.888 228.881M189.888 228.881L179.476 224.942M87.1035 224.942L74.4823 220.848M87.1035 224.942H133.29M87.1035 224.942H40.9173M133.29 224.942L121.57 220.848M133.29 224.942H179.476M179.476 224.942L168.658 220.848M74.4823 220.848H121.57M74.4823 220.848H27.3945M109.384 216.592L121.57 220.848M109.384 216.592L96.7019 212.163M109.384 216.592H157.409M121.57 220.848H168.658M27.3945 220.848H-19.6933M27.3945 220.848L40.9173 224.942M168.658 220.848L157.409 216.592M40.9173 224.942H-5.26895M96.7019 212.163L83.4945 207.551M96.7019 212.163H145.702M157.409 216.592L145.702 212.163M145.702 212.163L133.511 207.551M33.4775 207.551L18.6514 202.742M33.4775 207.551H83.4945M33.4775 207.551H-16.5396M83.4945 207.551L69.7276 202.742M83.4945 207.551H133.511M133.511 207.551L120.803 202.742M18.6514 202.742H69.7276M18.6514 202.742H-32.4241M55.3648 197.726L69.7276 202.742M55.3648 197.726L40.3676 192.489M55.3648 197.726H107.546M69.7276 202.742H120.803M-32.4241 202.742H-83.4995M-32.4241 202.742L-16.5396 207.551M120.803 202.742L107.546 197.726M-16.5396 207.551H-66.5557M40.3676 192.489L24.6916 187.014M40.3676 192.489H93.7014M107.546 197.726L93.7014 192.489M93.7014 192.489L79.2316 187.014M-29.8485 187.014L-47.5103 181.286M-29.8485 187.014H24.6916M-29.8485 187.014H-84.3877M24.6916 187.014L8.29123 181.286M24.6916 187.014H79.2316M79.2316 187.014L64.0928 181.286M-47.5103 181.286H8.29123M-8.88684 175.287L8.29123 181.286M-8.88684 175.287L-26.897 168.996M-8.88684 175.287H48.2368M8.29123 181.286H64.0928M64.0928 181.286L48.2368 175.287M-84.3877 187.014H-121.539M-26.897 168.996L-45.8034 162.393M-26.897 168.996H31.6111M48.2368 175.287L31.6111 168.996M31.6111 168.996L14.1595 162.393M-105.766 162.393H-45.8034M-105.766 162.393H-121.539M-105.766 162.393L-121.539 157.278M-45.8034 162.393L-65.6737 155.454M-45.8034 162.393H14.1595M14.1595 162.393L-4.18207 155.454M-86.5828 148.151L-65.6737 155.454M-86.5828 148.151L-108.615 140.456M-86.5828 148.151H-23.4831M-86.5828 148.151H-121.539M-65.6737 155.454H-4.18207M-65.6737 155.454H-121.539M-4.18207 155.454L-23.4831 148.151M-121.713 157.222L-121.539 157.278M-108.615 140.456H-43.8212M-108.615 140.456H-121.539M-108.615 140.456L-121.539 135.943M-23.4831 148.151L-43.8212 140.456M-43.8212 140.456L-65.2817 132.336M-65.2817 132.336L-87.9601 123.756M-65.2817 132.336H-121.539M-111.964 114.674L-87.9601 123.756M-111.964 114.674H-121.539M-111.964 114.674L-121.539 111.051M-87.9601 123.756H-121.539M-38.5026 239.859L-52.4841 236.332M-38.5026 239.859H4.39806M-38.5026 239.859H-81.4041M17.1413 243.262L29.4471 246.549M17.1413 243.262L4.39806 239.859M17.1413 243.262H59.2927M29.4471 246.549H70.8742M29.4471 246.549L41.3369 249.724M0.609108 249.724H41.3369M0.609108 249.724L12.7804 252.794M0.609108 249.724H-40.1186M4.39806 239.859L-8.80667 236.332M4.39806 239.859H47.2987M59.2927 243.262L70.8742 246.549M59.2927 243.262L47.2987 239.859M70.8742 246.549L82.0646 249.724M41.3369 249.724H82.0646M41.3369 249.724L52.8329 252.794M47.2987 239.859L34.8708 236.332M122.793 249.724L132.936 252.794M122.793 249.724H82.0646M82.0646 249.724L92.8844 252.794M-52.4841 236.332H-8.80667M-52.4841 236.332H-96.1616M-22.4987 232.675L-8.80667 236.332M-22.4987 232.675L-36.7048 228.881M-22.4987 232.675H21.9841M-8.80667 236.332H34.8708M-96.1616 236.332L-81.4041 239.859M-96.1616 236.332H-121.539M34.8708 236.332L21.9841 232.675M-81.4041 239.859H-121.539M-36.7048 228.881L-51.4552 224.942M-36.7048 228.881H8.61374M21.9841 232.675L8.61374 228.881M8.61374 228.881L-5.26895 224.942M-97.6414 224.942L-113.869 220.848M-97.6414 224.942H-51.4552M-97.6414 224.942H-121.539M-51.4552 224.942L-66.7811 220.848M-51.4552 224.942H-5.26895M-5.26895 224.942L-19.6933 220.848M-82.7173 216.592L-66.7811 220.848M-82.7173 216.592L-99.3011 212.163M-82.7173 216.592H-34.6923M-82.7173 216.592H-121.539M-66.7811 220.848H-113.869M-66.7811 220.848H-19.6933M-113.869 220.848L-121.539 218.914M-113.869 220.848H-121.539M-19.6933 220.848L-34.6923 216.592M-99.3011 212.163L-116.573 207.551M-99.3011 212.163H-50.3006M-99.3011 212.163H-121.539M-34.6923 216.592L-50.3006 212.163M-50.3006 212.163L-66.5557 207.551M-116.573 207.551H-66.5557M-116.573 207.551L-121.539 206.224M-116.573 207.551H-121.539M-66.5557 207.551L-83.4995 202.742M-101.176 197.726L-83.4995 202.742M-101.176 197.726L-119.635 192.489M-101.176 197.726H-121.539M-83.4995 202.742H-121.539M-121.807 202.742H-121.539M-119.635 192.489H-121.539M-119.635 192.489L-121.539 191.948M-122 191.817L-121.539 191.948M-109.312 243.262L-94.8351 246.549M-109.312 243.262H-121.539M-109.312 243.262L-121.539 240.487M-94.8351 246.549L-80.8464 249.724M-94.8351 246.549H-121.539M-40.1186 249.724L-27.2712 252.794M-40.1186 249.724H-80.8464M-80.8464 249.724L-67.3227 252.794M-80.8464 249.724H-121.539M1294.44 252.794H1334.49M1294.44 252.794H1254.38M1324.68 255.764L1327.1 255.031L1334.49 252.794M1324.68 255.764H1364.07M1334.49 252.794H1374.54M1364.07 255.764L1366.66 255.031L1367.96 254.662L1374.54 252.794M1374.54 252.794H1414.59M1414.59 252.794H1454.64M1254.38 252.794H1214.33M1454.64 252.794H1494.69M1494.69 252.794L1482.27 255.764M1494.69 252.794H1534.75M1482.27 255.764H1521.66M1134.23 252.794H1174.28M1134.23 252.794H1094.18M1167.08 255.764L1168.86 255.031L1169.76 254.662L1174.28 252.794M1167.08 255.764H1206.48M1174.28 252.794H1214.33M1206.48 255.764L1214.33 252.794M1094.18 252.794H1054.12M974.022 252.794H1014.07M974.022 252.794H933.97M1009.49 255.764L1010.06 255.398L1010.62 255.031L1011.19 254.662L1014.07 252.794M1009.49 255.764H1048.89M1014.07 252.794H1054.12M1048.89 255.764L1054.12 252.794M933.97 252.794H893.918M813.814 252.794H853.866M813.814 252.794H773.763M851.904 255.764L853.866 252.794M851.904 255.764H891.302M853.866 252.794H893.918M891.302 255.764L891.624 255.398L891.948 255.031L892.273 254.662L893.918 252.794M773.763 252.794H733.711M653.608 252.794H693.66M653.608 252.794H613.557M694.314 255.764L693.66 252.794M694.314 255.764H733.711M693.66 252.794H733.711M733.711 255.764V252.794M613.557 252.794H573.504M493.401 252.794H533.453M493.401 252.794H453.349M536.723 255.764L535.916 255.031L534.28 253.546L533.453 252.794M536.723 255.764H576.121M533.453 252.794H573.504M576.121 255.764L575.798 255.398L575.475 255.031L575.15 254.662L573.504 252.794M453.349 252.794H413.298M333.195 252.794H373.246M333.195 252.794H293.142M379.133 255.764L377.679 255.031L376.948 254.662L373.246 252.794M379.133 255.764H418.531M373.246 252.794H413.298M418.531 255.764L417.886 255.398L413.298 252.794M293.142 252.794H253.091M172.988 252.794H213.039M172.988 252.794H132.936M221.543 255.764L219.443 255.031L218.386 254.662L213.039 252.794M221.543 255.764H260.94M213.039 252.794H253.091M260.94 255.764L259.973 255.398L253.091 252.794M132.936 252.794H92.8844M12.7804 252.794H52.8329M12.7804 252.794H-27.2712M63.952 255.764L52.8329 252.794M63.952 255.764H103.35M52.8329 252.794H92.8844M103.35 255.764L100.766 255.031L99.4654 254.662L92.8844 252.794M-27.2712 252.794H-67.3227M-93.6377 255.764L-107.374 252.794M-93.6377 255.764H-54.2401M-93.6377 255.764H-121.539M-107.374 252.794H-67.3227M-107.374 252.794L-121.539 249.732M-107.374 252.794H-121.539M-54.2401 255.764L-57.4704 255.031L-67.3227 252.794M1521.66 255.764L1524.89 255.031L1534.75 252.794M1534.75 252.794H1574.8M1574.8 252.794L1588.96 249.732M1574.8 252.794H1588.96M1588.96 111.051V114.674M1588.96 111.051V105.045M1588.96 114.674V123.756M1588.96 105.045V103.251V94.8189M1588.96 94.8189V83.938M1588.96 181.286V187.014M1588.96 181.286V175.769M1588.96 255.764V252.794M1588.96 252.794V249.732M1588.96 249.732L1589 249.724H1588.96M1588.96 249.732V249.724M1588.96 249.724V246.549M1588.96 246.549V243.262M1588.96 243.262V240.487M1588.96 240.487V239.859M1588.96 239.859V236.332M1588.96 236.332V232.675M1588.96 232.675V230.268M1588.96 230.268V228.881M1588.96 228.881V224.942M1588.96 224.942V220.848M1588.96 220.848V218.914M1588.96 218.914V216.592M1588.96 216.592V212.163M1588.96 212.163V207.551M1588.96 207.551V206.224M1588.96 206.224V202.742M1588.96 202.742V197.726M1588.96 197.726V192.489M1588.96 192.489V191.948M1588.96 191.948V187.014M1588.96 175.287V168.996M1588.96 175.287V175.769M1588.96 168.996V162.393M1588.96 162.393V157.278M1588.96 157.278V155.454M1588.96 155.454V148.151M1588.96 148.151V140.456M1588.96 140.456V135.943M1588.96 135.943V132.336M1588.96 132.336V123.756M1588.96 83.938V81.6338M1588.96 81.6338V72.3374M1588.96 72.3374V59.9429M1588.96 59.9429V46.6705M1588.96 46.6705V46.3335M1588.96 46.3335V32.4227M1588.96 32.4227V17.0891M1588.96 17.0891V3.18817M1588.96 3.18817V0.539642M1588.96 0.539642V-17.3755M1588.96 -17.3755V-36.833M1588.96 -36.833V-50.7435M1588.96 -50.7435V-58.041M1588.96 -58.041V-81.2468M1588.96 -81.2468V-106.747M1588.96 -106.747V-120.084M1588.96 -120.084V-134.899M1588.96 -134.899V-134.999H-121.539V-134.899M-121.539 175.287V168.996M-121.539 175.287V175.769M-121.539 175.769V181.286M-121.539 181.286V187.014M-121.539 187.014V191.948M-121.539 191.948V192.489M-121.539 192.489V197.726M-121.539 197.726V202.742M-121.539 202.742V206.224M-121.539 206.224V207.551M-121.539 207.551V212.163M-121.539 212.163V216.592M-121.539 216.592V218.914M-121.539 218.914V220.848M-121.539 220.848V224.942M-121.539 224.942V228.881M-121.539 228.881V230.268M-121.539 230.268V232.675M-121.539 232.675V236.332M-121.539 236.332V239.859M-121.539 239.859V240.487M-121.539 240.487V243.262M-121.539 243.262V246.549M-121.539 246.549V249.724M-121.539 249.724H-121.574L-121.539 249.732M-121.539 249.724V249.732M-121.539 249.732V252.794M-121.539 252.794V255.764M-121.539 -134.899V-120.084M-121.539 -120.084V-106.747M-121.539 -106.747V-81.2473M-121.539 -81.2473V-58.041M-121.539 -58.041V-50.7435M-121.539 -50.7435V-36.833M-121.539 -36.833V-17.3755M-121.539 -17.3755V0.539642M-121.539 0.539642V3.18819M-121.539 3.18819V17.0891M-121.539 17.0891V32.4227M-121.539 32.4227V46.3335M-121.539 46.3335V46.6705M-121.539 46.6705V59.9429M-121.539 59.9429V72.3374M-121.539 72.3374V81.6337M-121.539 81.6337V83.938M-121.539 83.938V94.8189M-121.539 94.8189V105.045M-121.539 105.045V111.051M-121.539 111.051V114.674M-121.539 114.674V123.756M-121.539 123.756V132.336M-121.539 132.336V135.943M-121.539 135.943V140.456M-121.539 140.456V148.151M-121.539 148.151V155.454M-121.539 155.454V157.278M-121.539 157.278V162.393M-121.539 162.393V168.996" stroke="url(#paint0_linear_555_1282)" stroke-width="1.8895" stroke-miterlimit="10" stroke-linecap="round" stroke-linejoin="round"/>
<path opacity="0.5" d="M1198.51 -92.498L1012.51 119.502" stroke="url(#paint1_linear_555_1282)"/>
<path opacity="0.5" d="M115.51 -32.998L340.51 137.002" stroke="url(#paint2_linear_555_1282)"/>
<path opacity="0.5" d="M483.51 58.002L548.51 154.002" stroke="url(#paint3_linear_555_1282)"/>
<path opacity="0.5" d="M1463.51 -38.998L1356.51 31.002" stroke="url(#paint4_linear_555_1282)" stroke-width="2"/>
</g>
<defs>
<linearGradient id="paint0_linear_555_1282" x1="733.711" y1="258.639" x2="733.711" y2="-17.3499" gradientUnits="userSpaceOnUse">
<stop stop-color="#E5E7EB" stop-opacity="0"/>
<stop offset="1" stop-color="#D4D4D8"/>
</linearGradient>
<linearGradient id="paint1_linear_555_1282" x1="1012.51" y1="119.002" x2="1176.01" y2="-68.498" gradientUnits="userSpaceOnUse">
<stop stop-color="#E5E7EB"/>
<stop offset="0.255179" stop-color="#1E40AF"/>
<stop offset="1" stop-color="#E5E7EB"/>
</linearGradient>
<linearGradient id="paint2_linear_555_1282" x1="340.51" y1="136.601" x2="225.831" y2="-61.7902" gradientUnits="userSpaceOnUse">
<stop stop-color="#E5E7EB"/>
<stop offset="0.255179" stop-color="#1E40AF"/>
<stop offset="1" stop-color="#E5E7EB"/>
</linearGradient>
<linearGradient id="paint3_linear_555_1282" x1="548.51" y1="153.776" x2="474.331" y2="88.1262" gradientUnits="userSpaceOnUse">
<stop stop-color="#E5E7EB"/>
<stop offset="0.255179" stop-color="#1E40AF"/>
<stop offset="1" stop-color="#E5E7EB"/>
</linearGradient>
<linearGradient id="paint4_linear_555_1282" x1="1356.51" y1="30.8369" x2="1400.13" y2="-56.3168" gradientUnits="userSpaceOnUse">
<stop stop-color="#E5E7EB"/>
<stop offset="0.255179" stop-color="#1E40AF"/>
<stop offset="1" stop-color="#E5E7EB"/>
</linearGradient>
</defs>
</svg>
