<svg width="32" height="32" viewBox="0 0 32 32" fill="none" xmlns="http://www.w3.org/2000/svg">
<g clip-path="url(#clip0_368_624)">
<path fill-rule="evenodd" clip-rule="evenodd" d="M27.1345 18.8005C30.3005 15.2124 31.3922 10.3582 31.3207 8.20821C31.2492 6.05823 31.1983 5.72659 27.5743 2.10265C25.6661 0.194452 24.866 0.00859481 20.714 3.35443e-07C20.083 3.00963e-05 19.4611 3.35443e-07 18.6831 3.35443e-07L11.6914 0C14.9074 0.76358 17.9354 2.02271 20.134 4.39719C22.3326 6.77168 23.2119 9.04025 22.6377 13.2555C22.1821 16.6001 20.4561 19.5785 16.3518 20.4491C19.9586 22.066 24.9117 21.3197 27.1345 18.8005Z" fill="white"/>
<path fill-rule="evenodd" clip-rule="evenodd" d="M13.1999 27.1346C16.788 30.3005 21.6422 31.3922 23.7922 31.3207C25.9422 31.2492 26.2738 31.1983 29.8977 27.5744C31.8059 25.6662 31.9918 24.866 32.0004 20.714C32.0004 20.083 32.0004 19.4611 32.0004 18.6831V11.6914C31.2368 14.9074 29.9777 17.9354 27.6032 20.134C25.2287 22.3326 22.9601 23.2119 18.7449 22.6377C15.4003 22.1821 12.4219 20.4561 11.5513 16.3518C9.93442 19.9586 10.6807 24.9117 13.1999 27.1346Z" fill="#DBDFE4"/>
<path fill-rule="evenodd" clip-rule="evenodd" d="M4.86522 13.1989C1.69924 16.787 0.607527 21.6412 0.679054 23.7912C0.750584 25.9412 0.801476 26.2728 4.42541 29.8967C6.33361 31.8049 7.13374 31.9908 11.2858 31.9994C11.9168 31.9994 12.5387 31.9994 13.3167 31.9994H20.3084C17.0924 31.2358 14.0644 29.9767 11.8658 27.6022C9.66715 25.2277 8.78788 22.9591 9.36205 18.7439C9.81763 15.3993 11.5437 12.4209 15.648 11.5503C12.0412 9.93344 7.0881 10.6797 4.86522 13.1989Z" fill="white"/>
<path fill-rule="evenodd" clip-rule="evenodd" d="M18.8005 4.86523C15.2124 1.69925 10.3582 0.607528 8.20822 0.679054C6.05823 0.750584 5.72659 0.801476 2.10266 4.42542C0.194455 6.33362 0.00859761 7.13375 2.2581e-06 11.2858C3.18845e-05 11.9168 1.99111e-06 12.5387 1.82532e-06 13.3167L0 20.3084C0.763581 17.0924 2.02271 14.0644 4.39719 11.8658C6.77168 9.66716 9.04026 8.78789 13.2555 9.36205C16.6001 9.81763 19.5785 11.5437 20.4491 15.648C22.066 12.0412 21.3197 7.08811 18.8005 4.86523Z" fill="#DBDFE4"/>
</g>
<defs>
<clipPath id="clip0_368_624">
<rect width="32" height="32" fill="white"/>
</clipPath>
</defs>
</svg>
