<svg width="41" height="41" viewBox="0 0 41 41" fill="none" xmlns="http://www.w3.org/2000/svg">
<path fill-rule="evenodd" clip-rule="evenodd" d="M34.5644 24.1476C38.5219 19.6624 39.8865 13.5947 39.7971 10.9072C39.7077 8.21976 39.6441 7.80521 35.1142 3.27529C32.7289 0.890037 31.7288 0.657716 26.5388 0.646973C25.7499 0.64701 24.9726 0.646973 24.0001 0.646973L15.2605 0.646973C19.2805 1.60145 23.0655 3.17536 25.8138 6.14346C28.562 9.11157 29.6611 11.9473 28.9434 17.2163C28.3739 21.3971 26.2163 25.1201 21.086 26.2084C25.5945 28.2294 31.7858 27.2966 34.5644 24.1476Z" fill="black"/>
<path fill-rule="evenodd" clip-rule="evenodd" d="M17.1464 34.5642C21.6315 38.5216 27.6992 39.8863 30.3867 39.7969C33.0742 39.7075 33.4887 39.6439 38.0187 35.1139C40.4039 32.7287 40.6362 31.7285 40.647 26.5385C40.6469 25.7497 40.647 24.9724 40.647 23.9998L40.647 15.2603C39.6925 19.2803 38.1186 23.0653 35.1505 25.8135C32.1824 28.5618 29.3467 29.6608 24.0776 28.9431C19.8969 28.3737 16.1738 26.2161 15.0856 21.0858C13.0645 25.5942 13.9973 31.7856 17.1464 34.5642Z" fill="url(#paint0_linear_254_404)"/>
<path fill-rule="evenodd" clip-rule="evenodd" d="M6.72953 17.1464C2.77206 21.6315 1.40741 27.6992 1.49682 30.3867C1.58623 33.0742 1.64985 33.4887 6.17977 38.0187C8.56502 40.4039 9.56518 40.6362 14.7552 40.647C15.544 40.6469 16.3213 40.647 17.2939 40.647L26.0334 40.647C22.0134 39.6925 18.2284 38.1186 15.4802 35.1505C12.7319 32.1824 11.6329 29.3467 12.3506 24.0776C12.92 19.8969 15.0776 16.1738 20.2079 15.0856C15.6995 13.0645 9.50813 13.9973 6.72953 17.1464Z" fill="black"/>
<path fill-rule="evenodd" clip-rule="evenodd" d="M24.1476 6.72978C19.6624 2.7723 13.5947 1.40765 10.9072 1.49706C8.21976 1.58647 7.80521 1.65009 3.27529 6.18001C0.890039 8.56526 0.657718 9.56542 0.646974 14.7554C0.647012 15.5443 0.646974 16.3216 0.646974 17.2941L0.646973 26.0337C1.60145 22.0137 3.17536 18.2287 6.14346 15.4804C9.11157 12.7322 11.9473 11.6331 17.2163 12.3508C21.3971 12.9203 25.1201 15.0779 26.2084 20.2082C28.2294 15.6997 27.2966 9.50838 24.1476 6.72978Z" fill="url(#paint1_linear_254_404)"/>
<defs>
<linearGradient id="paint0_linear_254_404" x1="37.8029" y1="37.4916" x2="16.0379" y2="22.5671" gradientUnits="userSpaceOnUse">
<stop/>
<stop offset="1" stop-color="#505052"/>
</linearGradient>
<linearGradient id="paint1_linear_254_404" x1="1.73522" y1="14.4836" x2="26.2986" y2="7.33229" gradientUnits="userSpaceOnUse">
<stop/>
<stop offset="1" stop-color="#505052"/>
</linearGradient>
</defs>
</svg>
