<svg width="42" height="41" viewBox="0 0 42 41" fill="none" xmlns="http://www.w3.org/2000/svg">
<path d="M0 29.041V11.959C0 10.8218 0.451726 9.73128 1.2558 8.9272L8.9272 1.2558C9.73128 0.451726 10.8218 0 11.959 0H29.577C30.7141 0 31.8047 0.451727 32.6087 1.2558L40.2801 8.9272C41.0842 9.73128 41.5359 10.8218 41.5359 11.959V29.041C41.5359 30.1782 41.0842 31.2687 40.2801 32.0728L32.6087 39.7442C31.8047 40.5483 30.7141 41 29.577 41H11.959C10.8218 41 9.73128 40.5483 8.9272 39.7442L1.2558 32.0728C0.451726 31.2687 0 30.1782 0 29.041Z" fill="#1F2937"/>
<path d="M6.86616 13.8444C6.23323 11.1531 8.27522 8.5752 11.0399 8.5752H26.6348C28.6247 8.5752 30.353 9.94422 30.8085 11.8812L34.4008 27.1557C35.0337 29.8469 32.9918 32.4249 30.2271 32.4249H14.6322C12.6423 32.4249 10.914 31.0558 10.4584 29.1189L6.86616 13.8444Z" fill="white"/>
</svg>
