<svg width="32" height="32" viewBox="0 0 32 32" fill="none" xmlns="http://www.w3.org/2000/svg">
<path fill-rule="evenodd" clip-rule="evenodd" d="M27.1345 18.8005C30.3005 15.2124 31.3922 10.3582 31.3207 8.20821C31.2492 6.05823 31.1983 5.72659 27.5743 2.10265C25.6661 0.194452 24.866 0.00859481 20.714 3.35443e-07C20.083 3.00963e-05 19.4611 3.35443e-07 18.6831 3.35443e-07L11.6914 0C14.9074 0.76358 17.9354 2.02271 20.134 4.39719C22.3326 6.77168 23.2119 9.04025 22.6377 13.2555C22.1821 16.6001 20.4561 19.5785 16.3518 20.4491C19.9586 22.066 24.9117 21.3197 27.1345 18.8005Z" fill="#030712"/>
<path fill-rule="evenodd" clip-rule="evenodd" d="M13.1995 27.1341C16.7876 30.3 21.6418 31.3917 23.7918 31.3202C25.9418 31.2487 26.2734 31.1978 29.8973 27.5739C31.8055 25.6657 31.9914 24.8655 32 20.7135C32 20.0825 32 19.4606 32 18.6826L32 11.6909C31.2364 14.9069 29.9773 17.9349 27.6028 20.1335C25.2283 22.3321 22.9597 23.2114 18.7445 22.6372C15.3999 22.1816 12.4215 20.4556 11.5509 16.3513C9.93404 19.9581 10.6803 24.9112 13.1995 27.1341Z" fill="#374151"/>
<path fill-rule="evenodd" clip-rule="evenodd" d="M4.86546 13.1995C1.69948 16.7876 0.607763 21.6418 0.67929 23.7918C0.75082 25.9418 0.801712 26.2734 4.42565 29.8973C6.33385 31.8055 7.13398 31.9914 11.286 32C11.917 32 12.5389 32 13.3169 32L20.3086 32C17.0926 31.2364 14.0646 29.9773 11.866 27.6028C9.66739 25.2283 8.78812 22.9597 9.36229 18.7445C9.81787 15.3999 11.5439 12.4215 15.6482 11.5509C12.0414 9.93404 7.08834 10.6803 4.86546 13.1995Z" fill="#030712"/>
<path fill-rule="evenodd" clip-rule="evenodd" d="M18.8005 4.86595C15.2124 1.69997 10.3582 0.608252 8.20822 0.679778C6.05823 0.751308 5.72659 0.802201 2.10266 4.42614C0.194455 6.33434 0.00859761 7.13447 2.2581e-06 11.2865C3.18845e-05 11.9175 1.99111e-06 12.5394 1.82532e-06 13.3174L0 20.3091C0.763581 17.0931 2.02271 14.0651 4.39719 11.8665C6.77168 9.66788 9.04026 8.78861 13.2555 9.36277C16.6001 9.81835 19.5785 11.5444 20.4491 15.6487C22.066 12.0419 21.3197 7.08883 18.8005 4.86595Z" fill="#374151"/>
</svg>
